<?xml version="1.0" encoding="UTF-8"?>
<svg version="1.1" xmlns="http://www.w3.org/2000/svg" width="512" height="512">
<path d="M0 0 C6.74176184 5.82607262 11.31908727 12.86697683 15.80078125 20.48828125 C17.02728245 22.53857662 18.25519331 24.58802925 19.484375 26.63671875 C20.1119873 27.68569336 20.73959961 28.73466797 21.38623047 29.81542969 C24.48573444 34.95202157 27.67307207 40.03269992 30.86328125 45.11328125 C35.53085056 52.55836611 40.18258918 60.01245865 44.80078125 67.48828125 C49.38008608 74.89982013 53.98896177 82.29225243 58.61328125 89.67578125 C63.88143595 98.0895903 69.10573656 106.52914924 74.30078125 114.98828125 C92.72578013 146.50254789 92.72578013 146.50254789 115.30078125 174.98828125 C115.996875 175.74753906 116.69296875 176.50679687 117.41015625 177.2890625 C123.3765658 183.59298792 130.04765038 188.30611786 137.30078125 192.98828125 C138.37779297 193.69017578 138.37779297 193.69017578 139.4765625 194.40625 C143.63816671 196.96226855 147.47052796 198.31823909 152.37817383 197.74609375 C154.42475841 197.17060556 154.42475841 197.17060556 155.2487793 195.3359375 C157.40107053 187.48196246 158.57575858 179.52424228 159.74780273 171.4781189 C169.43310674 105.496581 169.43310674 105.496581 189.0546875 89.546875 C200.76951813 81.41780122 214.52672125 77.27139871 228.68359375 79.52734375 C243.75094572 82.43844572 243.75094572 82.43844572 249.30078125 87.98828125 C250.20430969 94.18851864 248.80310124 100.17138179 247.21875 106.1328125 C247.00390457 106.98268234 246.78905914 107.83255219 246.56770325 108.70817566 C245.88462303 111.40839971 245.18813937 114.10486088 244.48828125 116.80078125 C234.43755567 155.56073999 233.71733149 191.96150796 239.73046875 231.51171875 C256.12280181 339.36168764 256.12280181 339.36168764 228.05078125 378.11328125 C221.27818383 386.78080229 213.86414533 395.12342806 205.4140625 402.19140625 C202.69698678 404.50167396 200.10005231 406.93590942 197.48828125 409.36328125 C192.76113261 413.73408593 187.88136157 417.85488272 182.859375 421.88671875 C180.54700123 423.78604255 178.36299703 425.76049935 176.17578125 427.80078125 C153.95715166 447.68269222 123.62041235 463.92908016 93.30078125 464.98828125 C91.46193359 465.065625 91.46193359 465.065625 89.5859375 465.14453125 C64.80452137 465.85633788 41.90589082 458.81619281 20.30078125 446.98828125 C18.58568359 446.08335937 18.58568359 446.08335937 16.8359375 445.16015625 C1.31078178 436.69512289 -12.56203406 425.75613143 -25.69921875 413.98828125 C-26.62476563 413.16199219 -27.5503125 412.33570313 -28.50390625 411.484375 C-30.1602786 409.99666063 -31.81292375 408.5047808 -33.4609375 407.0078125 C-35.57899323 405.09675698 -37.72636442 403.22622542 -39.88671875 401.36328125 C-43.04334997 398.61783446 -45.98775884 395.7217677 -48.91796875 392.73828125 C-51.42154704 390.27862538 -54.08269118 388.0187543 -56.7421875 385.73046875 C-58.58458555 384.09032996 -60.29910511 382.38720564 -62.01171875 380.61328125 C-72.50475533 369.9771578 -84.84878888 361.71997925 -98.01171875 354.80078125 C-105.80975229 350.64215054 -113.54773752 346.4109329 -121.19921875 341.98828125 C-128.59512567 337.72187159 -136.05509657 333.5960049 -143.57421875 329.55078125 C-152.3387919 324.83462953 -161.03099808 320.00889593 -169.68066406 315.08544922 C-175.14332927 311.98187367 -180.62487511 308.9167932 -186.1328125 305.89453125 C-187.08993385 305.36893364 -187.08993385 305.36893364 -188.06639099 304.8327179 C-191.18005241 303.12372906 -194.29580883 301.41873287 -197.41479492 299.71948242 C-203.27803907 296.50627818 -209.09044331 293.22610305 -214.80859375 289.76171875 C-215.84209961 289.13571777 -216.87560547 288.5097168 -217.94042969 287.86474609 C-224.17090455 283.62692045 -228.48969168 278.23061998 -230.69921875 270.98828125 C-232.6574895 260.32475652 -231.38273145 251.46796878 -225.46875 242.31640625 C-220.30104925 235.51740041 -214.43061524 231.60482898 -206.26171875 229.30078125 C-192.69362758 227.64613599 -182.01555389 233.54377521 -170.26171875 239.55078125 C-168.81831163 240.28098554 -167.37462411 241.01063581 -165.93066406 241.73974609 C-157.84397977 245.83220736 -149.79619554 249.99493789 -141.79907227 254.26000977 C-134.22628027 258.28282014 -126.54333534 262.08416162 -118.86489868 265.89981079 C-111.40512885 269.60827502 -103.9858728 273.37696798 -96.63671875 277.30078125 C-87.47647781 282.18958929 -78.11764721 286.62184297 -68.69921875 290.98828125 C-69.64539063 290.28445313 -70.5915625 289.580625 -71.56640625 288.85546875 C-79.00379219 283.30791038 -86.38882783 277.70235064 -93.69921875 271.98828125 C-99.3218541 267.59375732 -104.97657154 263.2517816 -110.69921875 258.98828125 C-116.33841344 254.78684356 -121.91029161 250.50849604 -127.44921875 246.17578125 C-133.80934151 241.20212124 -140.2281985 236.31672035 -146.69921875 231.48828125 C-153.90021025 226.11375398 -161.02980525 220.65836157 -168.11010742 215.12597656 C-173.22114861 211.133064 -178.35647002 207.17394012 -183.51171875 203.23828125 C-184.21240479 202.70235352 -184.91309082 202.16642578 -185.63500977 201.61425781 C-188.88351592 199.1309825 -192.13751678 196.65581707 -195.40625 194.19921875 C-214.49216805 179.80734714 -214.49216805 179.80734714 -216.69921875 167.98828125 C-217.50436733 156.02984503 -216.90102811 146.78152718 -209.01171875 137.17578125 C-201.72875782 129.54215924 -193.70598684 126.79675449 -183.44921875 125.61328125 C-170.01165156 126.95703797 -161.4651712 133.22444887 -151.03417969 141.21386719 C-147.28537023 144.06271151 -143.46043599 146.80379359 -139.63671875 149.55078125 C-138.89204346 150.08888428 -138.14736816 150.6269873 -137.38012695 151.18139648 C-132.34432077 154.8188843 -127.28000233 158.41396118 -122.19921875 161.98828125 C-112.54413774 168.78060949 -102.98716355 175.7064804 -93.42871094 182.63378906 C-84.6877508 188.96656389 -75.92301641 195.26018469 -67.09350586 201.46899414 C-61.18272558 205.63146737 -55.32308183 209.86223026 -49.46923828 214.10424805 C-41.59534749 219.80243581 -33.65211447 225.40112033 -25.69921875 230.98828125 C-25.58290545 229.53952337 -25.58290545 229.53952337 -28.078125 227.546875 C-29.13770595 226.50486363 -30.19902025 225.46461299 -31.26171875 224.42578125 C-34.69263081 221.03875295 -38.0790809 217.66864336 -41.19921875 213.98828125 C-44.19187893 210.46750457 -47.41454205 207.23280298 -50.69921875 203.98828125 C-54.57649838 200.15840112 -58.26165481 196.26776823 -61.79296875 192.11328125 C-64.81923405 188.73973961 -68.07132581 185.59624589 -71.29467773 182.41235352 C-74.64982769 179.08245795 -77.79647327 175.64896726 -80.859375 172.046875 C-83.20416939 169.42329402 -85.69552443 166.95838021 -88.19921875 164.48828125 C-91.29413008 161.43489842 -94.31856132 158.36504464 -97.13671875 155.05078125 C-100.15274679 151.51149051 -103.39369453 148.2533338 -106.69921875 144.98828125 C-110.59817558 141.13706188 -114.30746172 137.22406396 -117.859375 133.046875 C-120.20416939 130.42329402 -122.69552443 127.95838021 -125.19921875 125.48828125 C-128.29413008 122.43489842 -131.31856132 119.36504464 -134.13671875 116.05078125 C-137.11918148 112.54495366 -140.35380578 109.33387005 -143.63671875 106.11328125 C-153.72243207 96.13251323 -162.02866167 86.83268031 -162.796875 72.10546875 C-162.42474101 60.22695177 -157.57111235 49.914645 -149.015625 41.78125 C-139.97564791 34.78403333 -129.82138672 33.21263815 -118.69921875 33.98828125 C-109.48949648 35.74006059 -103.15218705 40.2145666 -96.671875 46.78515625 C-96.11986923 47.33762024 -95.56786346 47.89008423 -94.99913025 48.45928955 C-93.83794056 49.62348419 -92.6791658 50.79009206 -91.52270508 51.95898438 C-89.7753637 53.72449442 -88.02024164 55.48195761 -86.26367188 57.23828125 C-81.12412421 62.39455582 -76.08916874 67.56984355 -71.36108398 73.11035156 C-67.99418633 76.91499042 -64.32034156 80.42791554 -60.69921875 83.98828125 C-55.75988049 88.84474471 -50.98770734 93.73849901 -46.47265625 98.9921875 C-43.21731754 102.65623613 -39.69469927 106.05533168 -36.19921875 109.48828125 C-31.43064101 114.17155349 -26.84945909 118.90794477 -22.49023438 123.97460938 C-19.22730875 127.64317679 -15.70073163 131.04940724 -12.19921875 134.48828125 C-8.07597301 138.53776589 -3.99910175 142.57187073 -0.23046875 146.95703125 C3.71265517 151.54006786 7.99188523 155.75168214 12.30078125 159.98828125 C17.87503797 165.46901017 23.24505208 171.0221957 28.30078125 176.98828125 C23.48035948 167.93270652 18.29965785 159.11139554 13.05078125 150.30078125 C12.62571289 149.58575439 12.20064453 148.87072754 11.76269531 148.1340332 C10.47992334 145.9765343 9.19546688 143.82004986 7.91015625 141.6640625 C7.52309509 141.01415848 7.13603394 140.36425446 6.73724365 139.69465637 C3.26744614 133.88933253 -0.32181436 128.16200221 -3.94140625 122.44921875 C-8.45713827 115.22334358 -12.73141516 107.84617547 -17.06665039 100.51113892 C-22.68618512 91.00742479 -28.38462807 81.56154894 -34.19921875 72.17578125 C-38.90070059 64.5740044 -43.56373907 56.95528818 -48.07421875 49.23828125 C-48.52087891 48.48184326 -48.96753906 47.72540527 -49.42773438 46.94604492 C-54.95669145 37.39194577 -56.04362939 28.31140529 -54.26953125 17.328125 C-51.79798627 8.67771758 -45.72769398 1.85050626 -38.15625 -2.79296875 C-24.93614795 -9.35047565 -12.16523581 -8.007796 0 0 Z " fill="#FED768" transform="translate(246.69921875,27.01171875)"/>
<path d="M0 0 C6.74176184 5.82607262 11.31908727 12.86697683 15.80078125 20.48828125 C17.02728245 22.53857662 18.25519331 24.58802925 19.484375 26.63671875 C20.1119873 27.68569336 20.73959961 28.73466797 21.38623047 29.81542969 C24.48573444 34.95202157 27.67307207 40.03269992 30.86328125 45.11328125 C35.53085056 52.55836611 40.18258918 60.01245865 44.80078125 67.48828125 C49.38008608 74.89982013 53.98896177 82.29225243 58.61328125 89.67578125 C63.88143595 98.0895903 69.10573656 106.52914924 74.30078125 114.98828125 C92.72578013 146.50254789 92.72578013 146.50254789 115.30078125 174.98828125 C115.996875 175.74753906 116.69296875 176.50679687 117.41015625 177.2890625 C123.3765658 183.59298792 130.04765038 188.30611786 137.30078125 192.98828125 C138.37779297 193.69017578 138.37779297 193.69017578 139.4765625 194.40625 C143.63816671 196.96226855 147.47052796 198.31823909 152.37817383 197.74609375 C154.42475841 197.17060556 154.42475841 197.17060556 155.2487793 195.3359375 C157.40107053 187.48196246 158.57575858 179.52424228 159.74780273 171.4781189 C169.43310674 105.496581 169.43310674 105.496581 189.0546875 89.546875 C200.76951813 81.41780122 214.52672125 77.27139871 228.68359375 79.52734375 C243.75094572 82.43844572 243.75094572 82.43844572 249.30078125 87.98828125 C250.20430969 94.18851864 248.80310124 100.17138179 247.21875 106.1328125 C247.00390457 106.98268234 246.78905914 107.83255219 246.56770325 108.70817566 C245.88462303 111.40839971 245.18813937 114.10486088 244.48828125 116.80078125 C234.43755567 155.56073999 233.71733149 191.96150796 239.73046875 231.51171875 C256.12280181 339.36168764 256.12280181 339.36168764 228.05078125 378.11328125 C221.27818383 386.78080229 213.86414533 395.12342806 205.4140625 402.19140625 C202.69698678 404.50167396 200.10005231 406.93590942 197.48828125 409.36328125 C192.76113261 413.73408593 187.88136157 417.85488272 182.859375 421.88671875 C180.54700123 423.78604255 178.36299703 425.76049935 176.17578125 427.80078125 C153.95715166 447.68269222 123.62041235 463.92908016 93.30078125 464.98828125 C91.46193359 465.065625 91.46193359 465.065625 89.5859375 465.14453125 C64.80452137 465.85633788 41.90589082 458.81619281 20.30078125 446.98828125 C18.58568359 446.08335937 18.58568359 446.08335937 16.8359375 445.16015625 C1.31078178 436.69512289 -12.56203406 425.75613143 -25.69921875 413.98828125 C-26.62476563 413.16199219 -27.5503125 412.33570313 -28.50390625 411.484375 C-30.1602786 409.99666063 -31.81292375 408.5047808 -33.4609375 407.0078125 C-35.57899323 405.09675698 -37.72636442 403.22622542 -39.88671875 401.36328125 C-43.04334997 398.61783446 -45.98775884 395.7217677 -48.91796875 392.73828125 C-51.42154704 390.27862538 -54.08269118 388.0187543 -56.7421875 385.73046875 C-58.58458555 384.09032996 -60.29910511 382.38720564 -62.01171875 380.61328125 C-72.50475533 369.9771578 -84.84878888 361.71997925 -98.01171875 354.80078125 C-105.80975229 350.64215054 -113.54773752 346.4109329 -121.19921875 341.98828125 C-128.59512567 337.72187159 -136.05509657 333.5960049 -143.57421875 329.55078125 C-152.3387919 324.83462953 -161.03099808 320.00889593 -169.68066406 315.08544922 C-175.14332927 311.98187367 -180.62487511 308.9167932 -186.1328125 305.89453125 C-187.08993385 305.36893364 -187.08993385 305.36893364 -188.06639099 304.8327179 C-191.18005241 303.12372906 -194.29580883 301.41873287 -197.41479492 299.71948242 C-203.27803907 296.50627818 -209.09044331 293.22610305 -214.80859375 289.76171875 C-215.84209961 289.13571777 -216.87560547 288.5097168 -217.94042969 287.86474609 C-224.17090455 283.62692045 -228.48969168 278.23061998 -230.69921875 270.98828125 C-232.6574895 260.32475652 -231.38273145 251.46796878 -225.46875 242.31640625 C-220.30104925 235.51740041 -214.43061524 231.60482898 -206.26171875 229.30078125 C-192.69362758 227.64613599 -182.01555389 233.54377521 -170.26171875 239.55078125 C-168.81831163 240.28098554 -167.37462411 241.01063581 -165.93066406 241.73974609 C-157.84397977 245.83220736 -149.79619554 249.99493789 -141.79907227 254.26000977 C-134.22628027 258.28282014 -126.54333534 262.08416162 -118.86489868 265.89981079 C-111.40512885 269.60827502 -103.9858728 273.37696798 -96.63671875 277.30078125 C-87.47647781 282.18958929 -78.11764721 286.62184297 -68.69921875 290.98828125 C-69.64539063 290.28445313 -70.5915625 289.580625 -71.56640625 288.85546875 C-79.00379219 283.30791038 -86.38882783 277.70235064 -93.69921875 271.98828125 C-99.3218541 267.59375732 -104.97657154 263.2517816 -110.69921875 258.98828125 C-116.33841344 254.78684356 -121.91029161 250.50849604 -127.44921875 246.17578125 C-133.80934151 241.20212124 -140.2281985 236.31672035 -146.69921875 231.48828125 C-153.90021025 226.11375398 -161.02980525 220.65836157 -168.11010742 215.12597656 C-173.22114861 211.133064 -178.35647002 207.17394012 -183.51171875 203.23828125 C-184.21240479 202.70235352 -184.91309082 202.16642578 -185.63500977 201.61425781 C-188.88351592 199.1309825 -192.13751678 196.65581707 -195.40625 194.19921875 C-214.49216805 179.80734714 -214.49216805 179.80734714 -216.69921875 167.98828125 C-217.50436733 156.02984503 -216.90102811 146.78152718 -209.01171875 137.17578125 C-201.72875782 129.54215924 -193.70598684 126.79675449 -183.44921875 125.61328125 C-170.01165156 126.95703797 -161.4651712 133.22444887 -151.03417969 141.21386719 C-147.28537023 144.06271151 -143.46043599 146.80379359 -139.63671875 149.55078125 C-138.89204346 150.08888428 -138.14736816 150.6269873 -137.38012695 151.18139648 C-132.34432077 154.8188843 -127.28000233 158.41396118 -122.19921875 161.98828125 C-112.54413774 168.78060949 -102.98716355 175.7064804 -93.42871094 182.63378906 C-84.6877508 188.96656389 -75.92301641 195.26018469 -67.09350586 201.46899414 C-61.18272558 205.63146737 -55.32308183 209.86223026 -49.46923828 214.10424805 C-41.59534749 219.80243581 -33.65211447 225.40112033 -25.69921875 230.98828125 C-25.58290545 229.53952337 -25.58290545 229.53952337 -28.078125 227.546875 C-29.13770595 226.50486363 -30.19902025 225.46461299 -31.26171875 224.42578125 C-34.69263081 221.03875295 -38.0790809 217.66864336 -41.19921875 213.98828125 C-44.19187893 210.46750457 -47.41454205 207.23280298 -50.69921875 203.98828125 C-54.57649838 200.15840112 -58.26165481 196.26776823 -61.79296875 192.11328125 C-64.81923405 188.73973961 -68.07132581 185.59624589 -71.29467773 182.41235352 C-74.64982769 179.08245795 -77.79647327 175.64896726 -80.859375 172.046875 C-83.20416939 169.42329402 -85.69552443 166.95838021 -88.19921875 164.48828125 C-91.29413008 161.43489842 -94.31856132 158.36504464 -97.13671875 155.05078125 C-100.15274679 151.51149051 -103.39369453 148.2533338 -106.69921875 144.98828125 C-110.59817558 141.13706188 -114.30746172 137.22406396 -117.859375 133.046875 C-120.20416939 130.42329402 -122.69552443 127.95838021 -125.19921875 125.48828125 C-128.29413008 122.43489842 -131.31856132 119.36504464 -134.13671875 116.05078125 C-137.11918148 112.54495366 -140.35380578 109.33387005 -143.63671875 106.11328125 C-153.72243207 96.13251323 -162.02866167 86.83268031 -162.796875 72.10546875 C-162.42474101 60.22695177 -157.57111235 49.914645 -149.015625 41.78125 C-139.97564791 34.78403333 -129.82138672 33.21263815 -118.69921875 33.98828125 C-109.48949648 35.74006059 -103.15218705 40.2145666 -96.671875 46.78515625 C-96.11986923 47.33762024 -95.56786346 47.89008423 -94.99913025 48.45928955 C-93.83794056 49.62348419 -92.6791658 50.79009206 -91.52270508 51.95898438 C-89.7753637 53.72449442 -88.02024164 55.48195761 -86.26367188 57.23828125 C-81.12412421 62.39455582 -76.08916874 67.56984355 -71.36108398 73.11035156 C-67.99418633 76.91499042 -64.32034156 80.42791554 -60.69921875 83.98828125 C-55.75988049 88.84474471 -50.98770734 93.73849901 -46.47265625 98.9921875 C-43.21731754 102.65623613 -39.69469927 106.05533168 -36.19921875 109.48828125 C-31.43064101 114.17155349 -26.84945909 118.90794477 -22.49023438 123.97460938 C-19.22730875 127.64317679 -15.70073163 131.04940724 -12.19921875 134.48828125 C-8.07597301 138.53776589 -3.99910175 142.57187073 -0.23046875 146.95703125 C3.71265517 151.54006786 7.99188523 155.75168214 12.30078125 159.98828125 C17.87503797 165.46901017 23.24505208 171.0221957 28.30078125 176.98828125 C23.48035948 167.93270652 18.29965785 159.11139554 13.05078125 150.30078125 C12.62571289 149.58575439 12.20064453 148.87072754 11.76269531 148.1340332 C10.47992334 145.9765343 9.19546688 143.82004986 7.91015625 141.6640625 C7.52309509 141.01415848 7.13603394 140.36425446 6.73724365 139.69465637 C3.26744614 133.88933253 -0.32181436 128.16200221 -3.94140625 122.44921875 C-8.45713827 115.22334358 -12.73141516 107.84617547 -17.06665039 100.51113892 C-22.68618512 91.00742479 -28.38462807 81.56154894 -34.19921875 72.17578125 C-38.90070059 64.5740044 -43.56373907 56.95528818 -48.07421875 49.23828125 C-48.52087891 48.48184326 -48.96753906 47.72540527 -49.42773438 46.94604492 C-54.95669145 37.39194577 -56.04362939 28.31140529 -54.26953125 17.328125 C-51.79798627 8.67771758 -45.72769398 1.85050626 -38.15625 -2.79296875 C-24.93614795 -9.35047565 -12.16523581 -8.007796 0 0 Z M-37.69921875 19.98828125 C-39.21877033 24.546936 -39.62024126 28.66056328 -37.84130859 33.15649414 C-34.51441994 39.64729654 -30.85084939 45.8926713 -27.03057861 52.1048584 C-25.91301074 53.92215989 -24.80045405 55.74245161 -23.68896484 57.56347656 C-22.13075953 60.11539688 -20.57065234 62.66613717 -19.00878906 65.21582031 C-15.43586012 71.04969958 -11.87797798 76.89270482 -8.32421875 82.73828125 C-7.97823639 83.30703979 -7.63225403 83.87579834 -7.27578735 84.46179199 C-1.08453709 94.64423961 4.99857972 104.88900174 11.06555176 115.14584351 C16.60166906 124.50042532 22.21436902 133.80218373 27.92578125 143.05078125 C28.58215576 144.11409668 29.23853027 145.17741211 29.91479492 146.27294922 C32.21746518 150.00085678 34.52132517 153.72802752 36.82617188 157.45458984 C38.11571236 159.5453588 39.39726592 161.64075871 40.67578125 163.73828125 C41.34351563 164.82625 42.01125 165.91421875 42.69921875 167.03515625 C46.07271659 173.25555714 47.21154731 178.98676715 46.30078125 185.98828125 C44.53786576 189.71752555 43.01203808 191.48024066 39.67578125 193.86328125 C34.64468646 195.54031285 29.43537306 196.49394547 24.48168945 194.11450195 C18.97574998 190.89143092 14.6577553 186.73242618 10.23828125 182.17578125 C9.56990234 181.50224609 8.90152344 180.82871094 8.21289062 180.13476562 C4.97595155 176.84749513 1.84668555 173.50358251 -1.1640625 170.0078125 C-4.96234809 165.61367523 -9.0572164 161.55618696 -13.19921875 157.48828125 C-17.32246449 153.43879661 -21.39933575 149.40469177 -25.16796875 145.01953125 C-29.11109267 140.43649464 -33.39032273 136.22488036 -37.69921875 131.98828125 C-42.63855701 127.13181779 -47.41073016 122.23806349 -51.92578125 116.984375 C-55.18111996 113.32032637 -58.70373823 109.92123082 -62.19921875 106.48828125 C-66.96779649 101.80500901 -71.54897841 97.06861773 -75.90820312 92.00195312 C-79.17112875 88.33338571 -82.69770587 84.92715526 -86.19921875 81.48828125 C-91.0116908 76.76189993 -95.65338095 71.98415551 -100.05566406 66.87207031 C-102.54543053 64.01838076 -105.16101274 61.30444743 -107.82421875 58.61328125 C-108.57251953 57.83404297 -108.57251953 57.83404297 -109.3359375 57.0390625 C-114.22533393 52.09860188 -118.07595824 50.68750619 -124.94921875 50.48828125 C-131.69105161 50.61793188 -135.93902905 52.18850577 -140.69921875 56.98828125 C-144.82254748 62.08180498 -146.25451359 66.83576435 -146.265625 73.3359375 C-144.60032132 81.13415266 -140.04543716 86.15271919 -134.38671875 91.48828125 C-133.02816543 92.80545567 -131.6713671 94.12444284 -130.31640625 95.4453125 C-129.67928711 96.0635791 -129.04216797 96.6818457 -128.38574219 97.31884766 C-126.49286207 99.19254688 -124.72792256 101.13939016 -123.01171875 103.17578125 C-119.60888378 107.2117018 -115.85307879 110.86073996 -112.10083008 114.56713867 C-108.76830148 117.87459889 -105.64698607 121.28502558 -102.60546875 124.86328125 C-99.57920345 128.23682289 -96.32711169 131.38031661 -93.10375977 134.56420898 C-89.74860981 137.89410455 -86.60196423 141.32759524 -83.5390625 144.9296875 C-81.19426811 147.55326848 -78.70291307 150.01818229 -76.19921875 152.48828125 C-73.10430742 155.54166408 -70.07987618 158.61151786 -67.26171875 161.92578125 C-64.24569071 165.46507199 -61.00474297 168.7232287 -57.69921875 171.98828125 C-53.80026192 175.83950062 -50.09097578 179.75249854 -46.5390625 183.9296875 C-44.19426811 186.55326848 -41.70291307 189.01818229 -39.19921875 191.48828125 C-36.10430742 194.54166408 -33.07987618 197.61151786 -30.26171875 200.92578125 C-27.27929596 204.43156189 -24.04512928 207.64323745 -20.76171875 210.86328125 C-5.2260346 226.19330691 -5.2260346 226.19330691 -4.38671875 235.42578125 C-4.86194697 240.8433829 -6.62848457 244.26673591 -10.69921875 247.80078125 C-15.13470646 251.03499104 -18.27888593 251.50450342 -23.69921875 250.98828125 C-31.93107674 248.28482973 -38.65379481 242.43017004 -45.4296875 237.23046875 C-49.57015097 234.06094443 -53.80187157 231.03919522 -58.07421875 228.05078125 C-63.98396566 223.90995663 -69.85713307 219.72407672 -75.69921875 215.48828125 C-81.50474759 211.2812405 -87.33434475 207.1121908 -93.19921875 202.98828125 C-99.82844587 198.32691376 -106.40650412 193.59883694 -112.96875 188.84375 C-118.02004261 185.18832409 -123.098824 181.5748197 -128.19921875 177.98828125 C-134.03927054 173.88001824 -139.850669 169.73478128 -145.63671875 165.55078125 C-146.37365967 165.01791504 -147.11060059 164.48504883 -147.86987305 163.93603516 C-151.8032587 161.08947791 -155.73263111 158.23744898 -159.66015625 155.3828125 C-160.47234619 154.79363037 -161.28453613 154.20444824 -162.12133789 153.59741211 C-163.67389419 152.47109126 -165.22523577 151.3430934 -166.77514648 150.21313477 C-174.26133644 144.78523968 -179.13840142 141.5822787 -188.69921875 142.98828125 C-193.79027908 144.89108619 -197.68302313 148.04820284 -200.0703125 152.97265625 C-201.52960057 157.64962919 -201.93001805 162.33060455 -199.83642578 166.85131836 C-196.66139957 172.43810466 -192.57923267 175.91538581 -187.44921875 179.67578125 C-186.65781494 180.27318115 -185.86641113 180.87058105 -185.05102539 181.48608398 C-183.40987265 182.72416374 -181.76474073 183.95698602 -180.11572266 185.18457031 C-177.13233748 187.41140903 -174.17928976 189.67607968 -171.22753906 191.94458008 C-169.1264344 193.55868185 -167.02098814 195.16694323 -164.9140625 196.7734375 C-160.67275441 200.00776681 -156.43566477 203.24758732 -152.19921875 206.48828125 C-147.90285889 209.77411189 -143.60619161 213.05953868 -139.30859375 216.34375 C-131.88264255 222.01929841 -124.46443922 227.70448589 -117.05859375 233.40625 C-111.01284752 238.05668445 -104.94905659 242.68361369 -98.88867188 247.31494141 C-96.73671892 248.95962088 -94.5850832 250.60471425 -92.43359375 252.25 C-91.73403564 252.78496094 -91.03447754 253.31992187 -90.3137207 253.87109375 C-88.90591336 254.94779573 -87.49819826 256.02461834 -86.09057617 257.1015625 C-82.4640227 259.87581937 -78.8353763 262.6472687 -75.203125 265.4140625 C-71.0277263 268.59583932 -66.86033136 271.78784767 -62.69921875 274.98828125 C-61.66023437 275.78621094 -60.62125 276.58414062 -59.55078125 277.40625 C-58.67164063 278.09332031 -57.7925 278.78039062 -56.88671875 279.48828125 C-55.79423828 280.3390625 -55.79423828 280.3390625 -54.6796875 281.20703125 C-49.96489508 285.44755461 -46.99652752 289.43992034 -46.26171875 295.73828125 C-46.41042389 300.71060922 -48.37707545 304.34814942 -51.69921875 307.98828125 C-56.50085598 310.83369591 -60.18658803 311.48392237 -65.69921875 310.98828125 C-69.23639904 309.72598144 -72.53872302 308.05729746 -75.88671875 306.36328125 C-76.87704102 305.87545166 -77.86736328 305.38762207 -78.88769531 304.88500977 C-82.1649189 303.26594757 -85.43176307 301.62695479 -88.69921875 299.98828125 C-91.05414566 298.82182213 -93.40962461 297.65647689 -95.765625 296.4921875 C-106.90310533 290.97670699 -117.98839273 285.37095944 -128.96191406 279.53491211 C-135.32763952 276.15685417 -141.76642308 272.9377487 -148.22290039 269.73730469 C-153.11752998 267.30307459 -157.97122287 264.8068019 -162.79541016 262.23583984 C-170.41819516 258.1740639 -178.08345821 254.19567971 -185.82421875 250.36328125 C-186.67685303 249.925 -187.5294873 249.48671875 -188.40795898 249.03515625 C-193.85690672 246.38156953 -198.61624324 244.87378448 -204.69921875 245.98828125 C-207.29991891 247.24789783 -207.29991891 247.24789783 -209.13671875 249.23828125 C-209.77480469 249.8415625 -210.41289062 250.44484375 -211.0703125 251.06640625 C-214.02181325 254.54875245 -215.00319126 257.30331641 -215.07421875 261.86328125 C-215.10257813 262.68570313 -215.1309375 263.508125 -215.16015625 264.35546875 C-214.52139891 268.00396406 -213.28898789 270.40500683 -210.69921875 272.98828125 C-207.16764671 275.42847267 -203.42551383 277.41560693 -199.63671875 279.42578125 C-197.3619133 280.66524371 -195.08717599 281.90483123 -192.8125 283.14453125 C-191.62472227 283.78554654 -190.4367328 284.42616964 -189.24853516 285.06640625 C-183.5757003 288.12934548 -177.9543927 291.28537796 -172.32421875 294.42578125 C-170.05631162 295.6854758 -167.7880806 296.94458739 -165.51953125 298.203125 C-157.62258736 302.58542047 -149.72784916 306.97168198 -141.83349609 311.35864258 C-136.15995423 314.51120422 -130.48534052 317.66180628 -124.80859375 320.80859375 C-112.04447357 327.88659044 -99.29042109 334.98094773 -86.609375 342.20703125 C-83.80166089 343.80628824 -80.98831131 345.38235183 -78.1328125 346.89453125 C-67.10815318 352.88396002 -58.02043876 361.57966421 -49.24633789 370.44824219 C-47.50909244 372.17753749 -45.70086441 373.7868989 -43.82421875 375.36328125 C-40.81454345 377.9546233 -37.98833259 380.66082908 -35.19921875 383.48828125 C-31.86463104 386.86270192 -28.44208571 390.04040304 -24.83984375 393.125 C-22.36735389 395.27714902 -19.97650518 397.50808844 -17.57421875 399.73828125 C-11.22450835 405.51870727 -4.54938586 410.81505604 2.30078125 415.98828125 C2.86667969 416.41641113 3.43257812 416.84454102 4.015625 417.28564453 C18.96517973 428.50212627 34.72380899 437.55099046 52.30078125 443.98828125 C53.53441406 444.44460938 54.76804687 444.9009375 56.0390625 445.37109375 C83.17606924 453.70748895 112.07778743 447.39179944 136.60546875 434.81640625 C154.01344939 425.56338547 168.57100008 412.16229252 183.0859375 398.98828125 C185.07490627 397.19224596 187.08641319 395.42874822 189.11328125 393.67578125 C190.51176746 392.44963374 191.90722093 391.22002434 193.30078125 389.98828125 C194.01838623 389.35647949 194.01838623 389.35647949 194.75048828 388.71191406 C213.45039866 372.16016093 226.76656405 354.20947968 230.30078125 328.98828125 C230.39135877 326.53773208 230.43141938 324.0850341 230.43359375 321.6328125 C230.43455048 320.93169846 230.4355072 320.23058441 230.43649292 319.50822449 C230.43717104 318.02314158 230.43534247 316.53805566 230.43115234 315.05297852 C230.42590412 312.85230251 230.43105442 310.65184069 230.4375 308.45117188 C230.4491619 291.26466415 229.3394614 274.38616655 226.98828125 257.36328125 C226.76498846 255.70552689 226.54201092 254.04773004 226.31933594 252.38989258 C224.88645978 241.81415093 223.32503933 231.2633229 221.55737305 220.73779297 C221.4056665 219.83432129 221.25395996 218.93084961 221.09765625 218 C220.96713867 217.24162842 220.83662109 216.48325684 220.70214844 215.7019043 C219.67584264 208.76310322 219.13034415 201.91926109 219.0625 194.90625 C219.05270615 194.06258377 219.04291229 193.21891754 219.03282166 192.34968567 C218.783042 165.21167794 221.42955577 140.19391397 227.93359375 113.765625 C229.29007382 108.21082969 230.34623855 102.62479356 231.30078125 96.98828125 C225.22058011 93.94818068 214.94851847 95.11046772 208.68359375 97.1875 C198.76861564 102.09553779 191.88754519 107.94565871 188.01953125 118.4765625 C186.87669486 122.09615099 185.89947682 125.75390179 184.95703125 129.43017578 C184.50914799 131.17605406 184.05032543 132.9191534 183.58203125 134.65966797 C179.63799663 149.34965629 177.03968718 164.04371588 175.125 179.11303711 C172.0032814 203.014626 172.0032814 203.014626 163.30078125 209.98828125 C157.12849067 214.02679169 150.54368325 215.46733921 143.30078125 213.98828125 C133.93691121 210.57114583 125.07907278 205.15850332 117.30078125 198.98828125 C116.77274902 198.57094727 116.2447168 198.15361328 115.70068359 197.72363281 C95.76831887 181.79797123 83.62267605 161.27482115 70.44921875 139.75 C66.58177158 133.4316778 62.66946726 127.14211529 58.73828125 120.86328125 C58.12307617 119.88029053 57.50787109 118.8972998 56.87402344 117.88452148 C55.01702816 114.91863613 53.15908485 111.95334702 51.30078125 108.98828125 C42.834871 95.4802728 34.41766765 81.9449766 26.07714844 68.35913086 C21.66534274 61.18157863 17.20358468 54.03861217 12.68481445 46.92797852 C10.03055159 42.74609542 7.40617065 38.54791253 4.8125 34.328125 C3.93404419 32.89980347 3.93404419 32.89980347 3.0378418 31.44262695 C1.91008011 29.60571477 0.78507843 27.76710418 -0.33666992 25.92651367 C-6.19114715 15.99485381 -6.19114715 15.99485381 -15.69921875 9.98828125 C-26.03593936 8.50087523 -31.63698981 11.84757381 -37.69921875 19.98828125 Z " fill="#465A63" transform="translate(246.69921875,27.01171875)"/>
<path d="M0 0 C2.79173055 -0.02690104 5.58320348 -0.04679053 8.375 -0.0625 C9.1690625 -0.07087891 9.963125 -0.07925781 10.78125 -0.08789062 C16.7734375 -0.11328125 16.7734375 -0.11328125 19 1 C17.87151969 7.6636025 16.50800121 14.2211314 14.89306641 20.78320312 C5.99848986 57.31147045 3.6438071 94.81108581 10 132 C10.24488672 133.54644998 10.48714555 135.09331877 10.7265625 136.640625 C11.20034632 139.68255844 11.68510711 142.72246849 12.17578125 145.76171875 C14.98827508 163.43675763 17.71494218 181.0829284 18 199 C18.03867187 200.92247559 18.03867187 200.92247559 18.078125 202.88378906 C18.14916701 206.60329603 18.19547802 210.32259927 18.22814941 214.04263306 C18.24245765 215.52899085 18.26109125 217.0153148 18.2845459 218.5015564 C18.66719522 245.08623174 9.1264047 265.92088663 -9 285 C-16.71183746 292.7566964 -24.81725981 300.03378008 -33.37890625 306.83984375 C-35.7436918 308.78876538 -37.98872898 310.82181154 -40.21630859 312.92504883 C-67.90618053 339.03881288 -98.82516024 353.02885722 -137.04296875 352.37109375 C-145.10235322 352.07356678 -152.39405458 350.68304217 -160 348 C-156.83049397 346.99781686 -153.77552363 346.86451801 -150.46850586 346.76098633 C-110.66981562 345.40446886 -79.81243112 322.267976 -51.6328125 296.34765625 C-49.05259838 294.04690152 -46.39766063 291.89521461 -43.6875 289.75 C-32.701233 280.83839287 -22.89939837 270.75430477 -15 259 C-14.37609375 258.0821875 -13.7521875 257.164375 -13.109375 256.21875 C-9.40286265 250.35279132 -6.84653207 244.3538648 -4.625 237.8125 C-4.37403564 237.07628418 -4.12307129 236.34006836 -3.86450195 235.58154297 C4.63183264 209.05307826 -2.06293919 176.84801262 -6.5 149.9375 C-6.60777771 149.28069244 -6.71555542 148.62388489 -6.82659912 147.94717407 C-7.83197596 141.83558091 -8.86293863 135.73126442 -9.98828125 129.640625 C-12.16214474 117.0864094 -12.28730498 104.58178125 -12.3125 91.875 C-12.31617584 90.9920224 -12.31985168 90.1090448 -12.32363892 89.1993103 C-12.36000576 72.46297819 -11.45068893 55.75665864 -7.8125 39.375 C-7.60471924 38.40498047 -7.39693848 37.43496094 -7.18286133 36.43554688 C-4.56010838 24.51411502 -1.29905239 12.74903098 2 1 C1.01 0.505 1.01 0.505 0 0 Z " fill="#F0C24E" transform="translate(459,123)"/>
<path d="M0 0 C0.89847656 -0.06058594 1.79695312 -0.12117188 2.72265625 -0.18359375 C9.10750982 1.04993203 14.22142232 4.94055514 17.87890625 10.265625 C18.77205829 11.72787691 19.64484896 13.20270442 20.5 14.6875 C20.99048828 15.49960937 21.48097656 16.31171875 21.98632812 17.1484375 C23.06491418 18.93497064 24.13571711 20.72622006 25.19970703 22.52148438 C28.38387173 27.86451095 31.6712629 33.14440989 34.9375 38.4375 C36.31256062 40.67704611 37.68756144 42.91662895 39.0625 45.15625 C42.31519753 50.44188349 45.60967803 55.69892311 48.9375 60.9375 C54.38491689 69.51269197 59.70246408 78.16536439 65.015625 86.82421875 C69.40996037 93.97759293 73.85820784 101.09288074 78.36157227 108.17797852 C81.8972942 113.75479518 85.36223637 119.37265951 88.81054688 125.00390625 C103.09798971 149.11696226 103.09798971 149.11696226 119.9375 171.4375 C120.62972656 172.26121094 121.32195312 173.08492187 122.03515625 173.93359375 C129.63670911 182.74174231 138.44236769 189.64987797 148.13671875 196.02734375 C148.73097656 196.49269531 149.32523438 196.95804688 149.9375 197.4375 C149.9375 198.0975 149.9375 198.7575 149.9375 199.4375 C136.813904 200.83252792 127.86942528 194.61371966 117.82421875 186.80078125 C113.3808038 183.16307348 109.12020859 179.3707137 104.9375 175.4375 C104.34710938 174.9115625 103.75671875 174.385625 103.1484375 173.84375 C91.89076754 163.38638833 84.21496808 149.22591256 76.40234375 136.19140625 C73.36262907 131.12074289 70.23891067 126.11086794 67.0625 121.125 C62.28147482 113.60653702 57.59676249 106.03197718 52.9375 98.4375 C48.3170711 90.90744965 43.67470084 83.39468703 38.9375 75.9375 C34.2002964 68.48030862 29.55819942 60.96738786 24.9375 53.4375 C17.34858053 41.07671242 9.71095428 28.74861949 1.7890625 16.59765625 C1.27899658 15.81463135 0.76893066 15.03160645 0.2434082 14.22485352 C-0.72601801 12.74004819 -1.69865423 11.25733189 -2.67504883 9.77709961 C-4.4791123 7.01887652 -6.01534191 4.57897428 -7.0625 1.4375 C-4.59361821 0.2030591 -2.75903864 0.12805665 0 0 Z " fill="#F0C24E" transform="translate(225.0625,36.5625)"/>
<path d="M0 0 C1.11890625 -0.02578125 2.2378125 -0.0515625 3.390625 -0.078125 C11.41214672 0.70537247 15.84246747 5.94123755 21.1875 11.4375 C21.91259766 12.16775391 22.63769531 12.89800781 23.38476562 13.65039062 C26.78641484 17.10094046 30.09184835 20.59778468 33.25390625 24.26953125 C37.03722791 28.65229813 41.12113861 32.69500017 45.25 36.75 C50.01857774 41.43327224 54.59975966 46.16966352 58.95898438 51.23632812 C62.22191 54.90489554 65.74848712 58.31112599 69.25 61.75 C73.37324574 65.79948464 77.450117 69.83358948 81.21875 74.21875 C85.16187392 78.80178661 89.44110398 83.01340089 93.75 87.25 C98.68933826 92.10646346 103.46151141 97.00021776 107.9765625 102.25390625 C111.23190121 105.91795488 114.75451948 109.31705043 118.25 112.75 C123.06536864 117.47922609 127.71008461 122.25999181 132.11523438 127.375 C134.56271826 130.18214998 137.13125127 132.85324326 139.75 135.5 C140.23210937 136.00273437 140.71421875 136.50546875 141.2109375 137.0234375 C144.73674954 140.58655972 148.31023286 142.91912225 152.75 145.25 C152.42842796 148.22454134 152.12860258 149.84335278 150.0625 152.0625 C146.9801261 153.64534065 145.18443019 153.73082023 141.75 153.25 C137.14059742 150.52771106 133.51752253 147.29752638 129.8125 143.5 C129.08256836 142.76910156 129.08256836 142.76910156 128.33789062 142.0234375 C125.67250475 139.32661195 123.14215294 136.55824015 120.68359375 133.671875 C115.37340501 127.54759847 109.51174852 121.94415259 103.75 116.25 C90.96556496 103.61554995 90.96556496 103.61554995 87.27734375 99.2734375 C84.15974518 95.60850366 80.7953245 92.23464837 77.37890625 88.8515625 C76.80723724 88.28540222 76.23556824 87.71924194 75.64657593 87.13592529 C73.25951004 84.77664448 70.86877452 82.42115506 68.47387695 80.06982422 C66.70874547 78.33470636 64.94973315 76.59357159 63.19140625 74.8515625 C62.64464737 74.31826324 62.09788849 73.78496399 61.53456116 73.23550415 C60.23471482 71.94447777 58.98678457 70.60155967 57.75 69.25 C57.75 68.59 57.75 67.93 57.75 67.25 C57.09 67.25 56.43 67.25 55.75 67.25 C54.46069336 65.93505859 54.46069336 65.93505859 52.90234375 64.0234375 C49.70294627 60.2591477 46.32995713 56.75522001 42.81640625 53.2890625 C42.289935 52.76826111 41.76346375 52.24745972 41.22103882 51.71087646 C39.02459595 49.5414939 36.82400681 47.37640206 34.61938477 45.21533203 C32.99325081 43.61921101 31.37324105 42.01707677 29.75390625 40.4140625 C29.25089493 39.9245108 28.74788361 39.43495911 28.22962952 38.93057251 C27.03138007 37.74116463 25.88516637 36.49975604 24.75 35.25 C24.75 34.59 24.75 33.93 24.75 33.25 C24.09 33.25 23.43 33.25 22.75 33.25 C21.42114258 31.89990234 21.42114258 31.89990234 19.83203125 29.9609375 C15.01006384 24.29053374 9.7186973 19.11048385 4.4375 13.875 C3.42619663 12.86872637 2.41512737 11.86221739 1.40429688 10.85546875 C-1.14462428 8.31777912 -3.69722103 5.78380897 -6.25 3.25 C-6.91 2.59 -7.57 1.93 -8.25 1.25 C-5.46348377 -0.14325811 -3.10857126 0.04258317 0 0 Z " fill="#F0C24E" transform="translate(121.25,77.75)"/>
<path d="M0 0 C4.03189729 2.11674608 5.60709552 4.96026531 7.625 8.875 C19.67190484 32.06839669 41.92026507 49.76576896 66.60205078 57.85253906 C77.88108189 61.21081961 88.68309673 63.19765016 100.45507812 63.34179688 C104.39708585 63.48388098 106.55938052 63.73114744 109.99609375 65.828125 C112.77932745 68.8446512 113 70.9396137 113 75 C111.65437601 77.94755732 110.91445456 79.54277272 108 81 C78.09204294 82.52921708 48.7848198 74.61982873 25 56 C24.42652832 55.55140625 23.85305664 55.1028125 23.26220703 54.640625 C8.45476252 42.875474 -5.18160527 27.91959364 -12 10 C-12 6.00300414 -11.52760146 4.57282444 -8.8125 1.625 C-5.45414218 -0.31538452 -3.81760338 -0.63626723 0 0 Z " fill="#455963" transform="translate(25,381)"/>
<path d="M0 0 C2.81403092 0.77220278 5.44879994 1.84335549 8.125 3 C8.86854736 3.31614258 9.61209473 3.63228516 10.37817383 3.95800781 C42.0181155 17.8028175 64.72150979 44.25165269 77.25683594 75.96679688 C79.28551569 81.51700877 80.69551268 87.24202104 82 93 C82.19207031 93.84046875 82.38414062 94.6809375 82.58203125 95.546875 C83.06917668 98.40600893 83.24284859 101.16280171 83.3125 104.0625 C83.36857422 105.59583984 83.36857422 105.59583984 83.42578125 107.16015625 C82.88926833 110.73854973 81.87368918 111.86108949 79 114 C77 114.53125 77 114.53125 75 114.5 C74.01 114.51546875 74.01 114.51546875 73 114.53125 C69.85913195 113.69695692 68.91741597 112.67096833 67 110 C65.91362301 106.45111698 65.28548532 102.83611804 64.625 99.1875 C60.81050913 80.05677491 53.21850473 64.28362791 41 49 C40.37351562 48.2059375 39.74703125 47.411875 39.1015625 46.59375 C27.56395302 32.76809138 11.37991516 23.85231075 -5.13671875 17.32421875 C-7.76740051 16.1075733 -9.25922028 15.27595186 -11 13 C-12.22143743 8.67799062 -12.1942299 5.94961382 -10 2 C-6.22272927 -0.51818048 -4.49416046 -0.36762049 0 0 Z " fill="#445963" transform="translate(319,17)"/>
<path d="M0 0 C6.63345075 1.57789775 11.78760569 6.07978363 17.13427734 10.14697266 C20.02707864 12.33433987 22.97605977 14.43872074 25.92578125 16.54833984 C28.96556086 18.72592502 31.98939178 20.92517095 35.01416016 23.12353516 C38.79357324 25.86992481 42.57749256 28.61006344 46.36328125 31.34765625 C47.10819824 31.88632324 47.85311523 32.42499023 48.62060547 32.97998047 C54.35305029 37.1176569 60.12346887 41.19931282 65.90649414 45.26586914 C71.83057233 49.43770699 77.703182 53.67829002 83.5703125 57.9296875 C88.62160511 61.58511341 93.7003865 65.1986178 98.80078125 68.78515625 C104.64083504 72.89342066 110.45212982 77.03879478 116.23828125 81.22265625 C116.97957275 81.75842285 117.72086426 82.29418945 118.48461914 82.84619141 C122.34583864 85.63952082 126.20107796 88.44082102 130.05078125 91.25 C143.63590498 101.37645204 143.63590498 101.37645204 158.30078125 109.78515625 C156.91123505 113.14322623 155.57133106 115.10568473 152.30078125 116.78515625 C141.83828686 117.21219684 132.6502435 107.61451437 124.76782227 101.61206055 C119.55617948 97.66425178 114.21869889 93.94345513 108.80078125 90.28515625 C102.17221016 85.80621213 95.7254952 81.1607803 89.3659668 76.30908203 C84.22947503 72.41719927 78.95253382 68.76753101 73.61328125 65.16015625 C67.11991769 60.77274844 60.89038578 56.21130059 54.7265625 51.37109375 C49.8209261 47.59798043 44.64547277 44.20544229 39.51953125 40.7421875 C33.66634573 36.76872133 27.99861647 32.60659608 22.37548828 28.31616211 C16.40897728 23.79542277 10.25206221 19.577129 4.03320312 15.41210938 C-1.39514166 11.75724283 -6.57972849 7.86090371 -11.69921875 3.78515625 C-7.65788001 0.61891054 -5.15522224 -0.15704651 0 0 Z " fill="#F0C14E" transform="translate(65.69921875,169.21484375)"/>
<path d="M0 0 C21.68725203 8.35001951 37.58840151 28.43620665 46.8125 49 C54.92470303 67.83593051 54.92470303 67.83593051 52 77 C50.4375 79.4375 50.4375 79.4375 48 81 C45.22255344 81.55320804 42.74608218 81.72942808 40 81 C35.33887492 77.73115904 34.82951326 73.36813731 33.6875 68.125 C30.50645962 54.9761151 25.15308029 44.11475476 16 34 C14.98486328 32.84564453 14.98486328 32.84564453 13.94921875 31.66796875 C8.91219773 26.26260981 3.37221422 22.48616689 -2.984375 18.82421875 C-10.64353144 14.19102438 -10.64353144 14.19102438 -11.6640625 10.78125 C-11.5594981 4.67468888 -11.5594981 4.67468888 -8.875 1.4375 C-5.50036503 -0.24981749 -3.7404732 -0.31056432 0 0 Z " fill="#455963" transform="translate(311,58)"/>
<path d="M0 0 C5.32421578 0.95075282 7.12713012 3.67925355 10.08203125 7.8671875 C10.65308594 8.69476563 11.22414063 9.52234375 11.8125 10.375 C24.16139825 28.22404993 40.80163303 37.97447127 61.7734375 42.765625 C72.05309298 45.13619545 72.05309298 45.13619545 74.5 47.8125 C75.82520706 51.53964485 75.5534289 53.83265594 74.5 57.625 C71.82410692 60.4920283 69.31979077 61.13894087 65.5 61.625 C62.95682862 61.34652984 60.56119166 60.99653875 58.0625 60.5 C57.35947754 60.36166748 56.65645508 60.22333496 55.93212891 60.08081055 C39.09874044 56.57590593 24.31929087 49.06473143 11.5 37.625 C10.68015625 36.89925781 9.8603125 36.17351562 9.015625 35.42578125 C3.98111258 30.6961539 -0.2101645 25.6035253 -4.125 19.9375 C-4.56328125 19.3199585 -5.0015625 18.70241699 -5.453125 18.06616211 C-8.25648388 13.83455971 -9.14958898 10.83432524 -8.5 5.625 C-5.90783917 1.93313458 -4.45850936 0.79616239 0 0 Z " fill="#455963" transform="translate(58.5,361.375)"/>
<path d="M0 0 C4.51284916 0.74112877 8.30313049 2.70590191 12.34277344 4.78027344 C13.78873901 5.49654907 13.78873901 5.49654907 15.26391602 6.22729492 C18.67746242 7.92970703 22.07367961 9.6645636 25.46777344 11.40527344 C26.85522689 12.11424988 28.24276287 12.82306481 29.63037109 13.53173828 C36.43051607 17.00790347 43.22225104 20.50005545 50.00561523 24.0088501 C57.13317513 27.69567415 64.2771546 31.34246606 71.46777344 34.90527344 C77.47365496 37.8829951 83.42357837 40.94639128 89.34277344 44.09277344 C97.23236309 48.2709704 105.16790743 52.35687335 113.13604736 56.38296509 C114.46867533 57.05765759 115.79988816 57.73515348 117.12957764 58.4156189 C126.9205532 63.4366011 126.9205532 63.4366011 137.46777344 66.40527344 C136.9285868 68.96376688 136.65801839 70.20039425 134.84277344 72.15527344 C131.46676671 73.93211909 129.27872747 73.72791397 125.46777344 73.40527344 C122.27910311 72.34394068 119.3400015 70.853934 116.34277344 69.34277344 C115.37742676 68.8687207 114.41208008 68.39466797 113.41748047 67.90625 C109.75621386 66.0945231 106.1106659 64.25358621 102.46777344 62.40527344 C101.7069043 62.01970276 100.94603516 61.63413208 100.16210938 61.23687744 C88.94685934 55.55055973 77.75457253 49.81974752 66.56903076 44.07525635 C59.5038464 40.44751233 52.43300107 36.83101996 45.35839844 33.22167969 C7.70478785 14.0091372 7.70478785 14.0091372 -10.53222656 4.40527344 C-7.51502781 0.2074317 -4.88608276 -0.24062516 0 0 Z " fill="#EFC14E" transform="translate(48.5322265625,272.5947265625)"/>
</svg>
