<?xml version="1.0" encoding="UTF-8"?>
<svg version="1.1" xmlns="http://www.w3.org/2000/svg" width="512" height="512">
<path d="M0 0 C8.25519798 6.11243602 15.32352687 13.50814811 22.56152344 20.76489258 C24.1205085 22.31930689 25.6798618 23.87335198 27.23956299 25.42704773 C30.4920581 28.67065271 33.73887832 31.91980936 36.98193359 35.17285156 C41.11777019 39.32018818 45.26927392 43.45143199 49.42541122 47.57841206 C52.64457806 50.77914991 55.8542937 53.98923812 59.061409 57.20204735 C60.58759944 58.7283901 62.11685392 60.25167605 63.6493454 61.77169228 C76.24178805 74.27597383 87.32863414 85.54105681 87.63964844 104.21411133 C87.52942222 120.3141375 79.50267946 130.95741282 68.45849609 141.85302734 C67.24809666 143.03593962 66.03763725 144.21879052 64.82714844 145.40161133 C62.75217932 147.44063618 60.6791426 149.4816229 58.60595703 151.52246094 C57.57574449 152.53611791 56.54550389 153.54974637 55.51522827 154.56333923 C54.75191193 155.31434402 53.98859558 156.06534882 53.20214844 156.83911133 C54.01710281 156.84275696 54.83205719 156.84640259 55.67170715 156.85015869 C63.3945181 156.88820359 71.11685538 156.94524095 78.83936024 157.02301407 C82.80853108 157.06233368 86.77748522 157.09459737 90.74682617 157.11010742 C94.58560679 157.12537743 98.42379103 157.16000233 102.26230431 157.20742035 C103.71848012 157.22212857 105.17474113 157.2301462 106.63099098 157.23099518 C120.9260191 157.247693 132.86313843 160.42914485 143.26464844 170.71411133 C143.90402344 171.41536133 144.54339844 172.11661133 145.20214844 172.83911133 C147.76464819 170.52678711 147.76464819 170.52678711 150.20214844 167.83911133 C150.54076125 164.87341529 150.54076125 164.87341529 148.84667969 163.36645508 C148.24210937 162.84180664 147.63753906 162.3171582 147.01464844 161.77661133 C139.93437147 154.99731779 136.20240325 145.4665782 135.94145203 135.73674011 C135.92660935 133.7373035 135.922658 131.73776711 135.92749023 129.73828125 C135.91982384 128.0929818 135.91982384 128.0929818 135.91200256 126.41444397 C135.89813743 122.79943335 135.89906124 119.18461408 135.90136719 115.56958008 C135.89747823 113.04763214 135.89314314 110.52568485 135.88838196 108.0037384 C135.8809261 102.72057478 135.88106719 97.43746034 135.88647461 92.15429688 C135.89250796 86.06887656 135.88021452 79.98368784 135.85890454 73.89830703 C135.83908583 68.02020509 135.83612424 62.14219308 135.83963966 56.26406288 C135.83912774 53.77429982 135.83391433 51.28453295 135.82382774 48.79479027 C135.81142829 45.3057229 135.81827685 41.81718453 135.82983398 38.328125 C135.82219025 37.30909088 135.81454651 36.29005676 135.80667114 35.24014282 C135.89156509 23.58687969 139.34527698 13.35816319 147.20605469 4.60864258 C154.08145118 -1.94696804 163.28154317 -7.25953479 172.96862793 -7.30805969 C173.94972534 -7.315215 174.93082275 -7.3223703 175.94165039 -7.32974243 C177.01697021 -7.33243134 178.09229004 -7.33512024 179.20019531 -7.33789062 C180.3338855 -7.34446182 181.46757568 -7.35103302 182.63562012 -7.35780334 C186.39738021 -7.37755462 190.15910028 -7.38920522 193.92089844 -7.39916992 C195.20625992 -7.40324545 196.4916214 -7.40732098 197.81593323 -7.41152 C203.92150262 -7.4302391 210.02705198 -7.44480008 216.13264418 -7.45313197 C223.15992983 -7.46288162 230.18689858 -7.48914019 237.2140727 -7.52963287 C243.31534189 -7.56357166 249.41647922 -7.57528873 255.51783752 -7.57933617 C258.10447839 -7.5841964 260.69111601 -7.59579418 263.2776947 -7.61437416 C266.90836465 -7.63882561 270.53821754 -7.63778861 274.16894531 -7.63085938 C275.22807129 -7.64366943 276.28719727 -7.65647949 277.37841797 -7.66967773 C289.8993892 -7.58305111 299.00719426 -3.11000159 307.91699219 5.49536133 C314.10259047 12.16888212 318.303014 20.53375965 318.34931946 29.68788147 C318.36005241 31.14896835 318.36005241 31.14896835 318.3710022 32.63957214 C318.37503555 34.23313286 318.37503555 34.23313286 318.37915039 35.85888672 C318.38900719 37.54501068 318.38900719 37.54501068 318.39906311 39.26519775 C318.4187888 42.98905505 318.43045854 46.71287199 318.44042969 50.43676758 C318.44450521 51.71017942 318.44858074 52.98359127 318.45277977 54.29559135 C318.47148946 60.34349421 318.48605394 66.39137271 318.49439174 72.43929678 C318.5041451 79.39752306 318.53041734 86.35542962 318.57089263 93.31354338 C318.60483192 99.35768633 318.61654838 105.4016756 318.62059593 111.44592094 C318.6254553 114.00744224 318.6370506 116.56896028 318.65563393 119.13041878 C318.68008729 122.7250595 318.6790482 126.31887508 318.67211914 129.91357422 C318.6849292 130.96177841 318.69773926 132.0099826 318.7109375 133.08995056 C318.6357476 143.85110228 315.17666928 153.5517395 308.20214844 161.83911133 C306.56579054 163.20947201 304.90444957 164.55158408 303.20214844 165.83911133 C303.79382813 166.43336914 304.38550781 167.02762695 304.99511719 167.63989258 C312.13054323 175.12452381 318.28599362 183.8897618 318.35604858 194.59886169 C318.36464905 195.57851395 318.37324951 196.5581662 318.3821106 197.56750488 C318.38850052 199.17812805 318.38850052 199.17812805 318.39501953 200.82128906 C318.40319702 201.95337296 318.41137451 203.08545685 318.4197998 204.25184631 C318.44466553 208.00879386 318.4611768 211.76570346 318.47558594 215.52270508 C318.48357145 217.44887507 318.48357145 217.44887507 318.49171829 219.4139576 C318.51295452 224.81584158 318.53208163 230.21771327 318.54334068 235.61962795 C318.55953594 243.33738021 318.5925998 251.05462549 318.64974153 258.7721867 C318.69331998 264.86811566 318.70910721 270.96384803 318.71547318 277.05992317 C318.72217055 279.64296124 318.7373528 282.22599239 318.76136398 284.80892754 C318.79315586 288.43713119 318.79302985 292.06407513 318.78564453 295.69238281 C318.81025253 297.27567886 318.81025253 297.27567886 318.83535767 298.89096069 C318.73056357 311.55207882 313.23256303 321.66423616 304.49121094 330.58520508 C304.06582031 330.99899414 303.64042969 331.4127832 303.20214844 331.83911133 C304.06839844 332.45786133 304.93464844 333.07661133 305.82714844 333.71411133 C312.88909736 339.62411113 317.51569905 349.38818684 318.48484612 358.4957695 C318.59686085 361.47627202 318.61905698 364.44392365 318.60620117 367.42651367 C318.61649605 369.11373283 318.61649605 369.11373283 318.6269989 370.83503723 C318.64521308 374.5318383 318.64143665 378.22821276 318.63574219 381.92504883 C318.64030675 384.50900408 318.64561314 387.09295812 318.65162659 389.6769104 C318.66054733 395.08520025 318.65838239 400.4933281 318.64819336 405.90161133 C318.63672129 412.12799902 318.65078142 418.3539555 318.67758983 424.58028638 C318.70252735 430.60044901 318.70490619 436.62039189 318.69847298 442.64061356 C318.69832014 445.18816469 318.70433304 447.73572428 318.71676445 450.28324509 C318.73173223 453.85345774 318.72095337 457.42273542 318.70385742 460.99291992 C318.71352539 462.03326889 318.72319336 463.07361786 318.7331543 464.14549255 C318.60903805 476.59696383 314.10101594 485.69618012 305.54589844 494.55395508 C298.87237765 500.73955336 290.50750012 504.93997689 281.3533783 504.98628235 C279.89229141 504.9970153 279.89229141 504.9970153 278.40168762 505.00796509 C276.80812691 505.01199844 276.80812691 505.01199844 275.18237305 505.01611328 C273.49624908 505.02597008 273.49624908 505.02597008 271.77606201 505.036026 C268.05220471 505.05575169 264.32838778 505.06742143 260.60449219 505.07739258 C258.69437442 505.08350587 258.69437442 505.08350587 256.74566841 505.08974266 C250.69776555 505.10845235 244.64988705 505.12301683 238.60196298 505.13135463 C231.6437367 505.14110799 224.68583014 505.16738023 217.72771639 505.20785552 C211.68357343 505.24179481 205.63958416 505.25351127 199.59533882 505.25755882 C197.03381753 505.26241819 194.47229948 505.27401349 191.91084099 505.29259682 C188.31620027 505.31705018 184.72238469 505.31601109 181.12768555 505.30908203 C180.07948135 505.32189209 179.03127716 505.33470215 177.9513092 505.34790039 C167.19015749 505.27271049 157.48952026 501.81363217 149.20214844 494.83911133 C147.83178776 493.20275343 146.48967569 491.54141246 145.20214844 489.83911133 C144.60789062 490.43079102 144.01363281 491.0224707 143.40136719 491.63208008 C135.91673595 498.76750612 127.15149797 504.92295651 116.44239807 504.99301147 C115.46274582 505.00161194 114.48309357 505.0102124 113.47375488 505.01907349 C112.4000061 505.02333344 111.32625732 505.02759338 110.2199707 505.03198242 C109.08788681 505.04015991 107.95580292 505.0483374 106.78941345 505.0567627 C103.03246591 505.08162842 99.2755563 505.09813969 95.51855469 505.11254883 C93.59238469 505.12053434 93.59238469 505.12053434 91.62730217 505.12868118 C86.22541818 505.14991741 80.8235465 505.16904452 75.42163181 505.18030357 C67.70387956 505.19649883 59.98663427 505.22956269 52.26907307 505.28670442 C46.1731441 505.33028287 40.07741174 505.3460701 33.98133659 505.35243607 C31.39829853 505.35913344 28.81526738 505.37431569 26.23233223 505.39832687 C22.60412857 505.43011875 18.97718464 505.42999274 15.34887695 505.42260742 C14.29334625 505.43901276 13.23781555 505.45541809 12.15029907 505.47232056 C-0.51081906 505.36752646 -10.62297639 499.86952592 -19.54394531 491.12817383 C-19.95773438 490.7027832 -20.37152344 490.27739258 -20.79785156 489.83911133 C-21.41660156 490.70536133 -22.03535156 491.57161133 -22.67285156 492.46411133 C-28.58285137 499.52606025 -38.34692707 504.15266194 -47.45450974 505.12180901 C-50.43501226 505.23382374 -53.40266388 505.25601987 -56.38525391 505.24316406 C-57.51006668 505.25002731 -58.63487946 505.25689056 -59.79377747 505.26396179 C-63.49057853 505.28217597 -67.186953 505.27839954 -70.88378906 505.27270508 C-73.46774431 505.27726964 -76.05169835 505.28257603 -78.63565063 505.28858948 C-84.04394049 505.29751022 -89.45206834 505.29534528 -94.86035156 505.28515625 C-101.08673925 505.27368418 -107.31269573 505.28774431 -113.53902662 505.31455272 C-119.55918924 505.33949024 -125.57913213 505.34186908 -131.59935379 505.33543587 C-134.14690493 505.33528303 -136.69446451 505.34129593 -139.24198532 505.35372734 C-142.81219798 505.36869512 -146.38147566 505.35791626 -149.95166016 505.34082031 C-150.99200912 505.35048828 -152.03235809 505.36015625 -153.10423279 505.37011719 C-165.55570406 505.24600094 -174.65492036 500.73797883 -183.51269531 492.18286133 C-189.69829359 485.50934054 -193.89871712 477.14446301 -193.94502258 467.99034119 C-193.95217789 467.01628326 -193.95933319 466.04222534 -193.96670532 465.03865051 C-193.96939423 463.9762767 -193.97208313 462.91390289 -193.97485352 461.81933594 C-193.98142471 460.6952533 -193.98799591 459.57117065 -193.99476624 458.4130249 C-194.01449192 454.6891676 -194.02616166 450.96535067 -194.03613281 447.24145508 C-194.04020834 445.96804323 -194.04428387 444.69463139 -194.04848289 443.3826313 C-194.06719258 437.33472844 -194.08175706 431.28684994 -194.09009486 425.23892587 C-194.09984823 418.28069959 -194.12612046 411.32279303 -194.16659576 404.36467928 C-194.20053504 398.32053632 -194.2122515 392.27654706 -194.21629906 386.23230171 C-194.22115842 383.67078042 -194.23275372 381.10926237 -194.25133705 378.54780388 C-194.27579041 374.95316316 -194.27475132 371.35934758 -194.26782227 367.76464844 C-194.28063232 366.71644424 -194.29344238 365.66824005 -194.30664062 364.58827209 C-194.23145073 353.82712038 -190.7723724 344.12648315 -183.79785156 335.83911133 C-182.16149366 334.46875065 -180.50015269 333.12663858 -178.79785156 331.83911133 C-179.38953125 331.24485352 -179.98121094 330.6505957 -180.59082031 330.03833008 C-187.72577252 322.55419587 -193.89136946 313.78346941 -193.94502258 303.07263184 C-193.95217789 302.09153442 -193.95933319 301.11043701 -193.96670532 300.09960938 C-193.96939423 299.02428955 -193.97208313 297.94896973 -193.97485352 296.84106445 C-193.98142471 295.70737427 -193.98799591 294.57368408 -193.99476624 293.40563965 C-194.01451751 289.64387955 -194.02616811 285.88215948 -194.03613281 282.12036133 C-194.04020834 280.83499985 -194.04428387 279.54963837 -194.04848289 278.22532654 C-194.06720199 272.11975715 -194.08176297 266.01420778 -194.09009486 259.90861559 C-194.09984451 252.88132994 -194.12610308 245.85436119 -194.16659576 238.82718706 C-194.20053455 232.72591787 -194.21225162 226.62478055 -194.21629906 220.52342224 C-194.22115929 217.93678138 -194.23275707 215.35014376 -194.25133705 212.76356506 C-194.2757885 209.13289511 -194.2747515 205.50304222 -194.26782227 201.87231445 C-194.28063232 200.81318848 -194.29344238 199.7540625 -194.30664062 198.6628418 C-194.21965086 186.08938328 -189.69746547 177.13773905 -181.17675781 168.12426758 C-174.04042627 161.39866015 -164.63617646 157.7790008 -154.92773438 157.63378906 C-153.74681213 157.61384384 -152.56588989 157.59389862 -151.34918213 157.573349 C-150.07927429 157.55663651 -148.80936646 157.53992401 -147.50097656 157.52270508 C-146.1970697 157.50192398 -144.89316284 157.48114288 -143.54974365 157.45973206 C-140.09089348 157.40465897 -136.63198516 157.35518493 -133.17303467 157.30688477 C-129.64036918 157.25656161 -126.10778768 157.20093211 -122.57519531 157.14575195 C-115.64948693 157.03835112 -108.72370262 156.93686636 -101.79785156 156.83911133 C-102.55928467 156.09338867 -103.32071777 155.34766602 -104.10522461 154.5793457 C-106.95514327 151.78413743 -109.79478562 148.97867582 -112.6315918 146.17016602 C-113.8557428 144.96100856 -115.08258455 143.75456845 -116.31225586 142.55102539 C-118.08951962 140.81056247 -119.85655383 139.06023036 -121.62207031 137.30786133 C-122.43643806 136.51671936 -122.43643806 136.51671936 -123.26725769 135.70959473 C-132.13908483 126.84163233 -136.06281211 117.41379108 -136.23535156 104.96411133 C-136.13279537 89.53177172 -129.20917864 78.77262653 -118.48242188 68.11962891 C-117.77584442 67.4061882 -117.06926697 66.6927475 -116.34127808 65.95768738 C-114.02707592 63.6253361 -111.70211911 61.30408094 -109.37597656 58.98364258 C-107.74904565 57.35214446 -106.12248519 55.72027683 -104.49627686 54.08805847 C-101.09529738 50.67817137 -97.68873612 47.27398347 -94.27832031 43.87353516 C-89.92457135 39.53127715 -85.58688486 35.17336267 -81.25349808 30.81079578 C-77.90095043 27.43983893 -74.53907188 24.07830946 -71.17446136 20.71939659 C-69.57193274 19.11702058 -67.97247402 17.51156789 -66.37625885 15.9029026 C-64.13731559 13.64896127 -61.88582752 11.40830461 -59.63085938 9.17041016 C-58.98428375 8.51416656 -58.33770813 7.85792297 -57.67153931 7.18179321 C-41.85249847 -8.38942081 -18.86799966 -13.20963099 0 0 Z M-62.85253906 37.72583008 C-64.28590937 39.15598023 -65.71935184 40.58605808 -67.15286255 42.0160675 C-70.13818245 44.99543756 -73.12146724 47.97682833 -76.10351562 50.95947266 C-79.91805125 54.77411043 -83.73945417 58.58178893 -87.5626049 62.38778973 C-90.51716419 65.3312237 -93.46716046 68.27919835 -96.41589737 71.22846413 C-97.82324907 72.6346393 -99.23221447 74.03920142 -100.64284897 75.44208336 C-102.6119099 77.40132064 -104.57450334 79.36682394 -106.53564453 81.33398438 C-107.11335098 81.90607132 -107.69105743 82.47815826 -108.28627014 83.06758118 C-114.35055084 89.17914461 -118.71297686 95.32201697 -119.17285156 104.15161133 C-118.81984871 116.52747587 -109.04373603 124.73356337 -100.88793945 132.92602539 C-100.23652481 133.58401123 -99.58511017 134.24199707 -98.91395569 134.91992188 C-96.78566202 137.06771644 -94.65355316 139.21166127 -92.52050781 141.35473633 C-91.78669828 142.09262138 -91.05288876 142.83050644 -90.29684258 143.59075165 C-86.41968049 147.48866526 -82.53932829 151.38337163 -78.65649414 155.27563477 C-74.65912839 159.28410346 -70.67358685 163.30412143 -66.69051456 167.32678604 C-63.61129931 170.43217137 -60.52320698 173.52861365 -57.43267632 176.62273407 C-55.9593827 178.10088449 -54.48945601 179.58239906 -53.02305794 181.06739044 C-50.9704431 183.14442671 -48.90547708 185.20839263 -46.8371582 187.26977539 C-46.2410675 187.87867615 -45.64497681 188.4875769 -45.03082275 189.1149292 C-39.06168139 195.01173991 -32.75198064 198.41571521 -24.30957031 198.93286133 C-13.07328204 198.51346643 -5.14947397 190.49245247 2.36499023 182.96679688 C3.03112335 182.30738098 3.69725647 181.64796509 4.38357544 180.96856689 C6.56143566 178.80954508 8.7318278 176.64321097 10.90136719 174.47583008 C12.42480829 172.9588246 13.94839574 171.44196607 15.47212219 169.92524719 C18.65530281 166.75400239 21.8343627 163.5786911 25.01098633 160.40087891 C29.06921716 156.34244461 33.14104912 152.29796048 37.21654034 148.25686932 C40.36421555 145.13149277 43.50269633 141.99700558 46.63871193 138.85993385 C48.13571201 137.36528347 49.63593233 135.8738508 51.13950157 134.38580894 C53.24518623 132.29985192 55.33766553 130.20143999 57.42749023 128.09960938 C58.04214645 127.49619217 58.65680267 126.89277496 59.29008484 126.27107239 C65.43155232 120.04014208 69.88507126 113.24010689 70.32714844 104.31567383 C69.73114651 92.50738558 60.83630125 85.32607761 52.98510742 77.4609375 C52.30121948 76.77208466 51.61733154 76.08323181 50.91271973 75.37350464 C48.67729705 73.12362133 46.43812768 70.87751993 44.19824219 68.63208008 C43.42883867 67.85984919 42.65943516 67.08761829 41.86671638 66.29198647 C37.80357568 62.21392699 33.73762355 58.13869635 29.66918945 54.06591797 C25.47385034 49.86507182 21.28788584 45.65501139 17.10400295 41.44275951 C13.87567127 38.19580627 10.64065324 34.9555783 7.40376472 31.71715736 C5.85714661 30.16751656 4.31302523 28.61537965 2.77148247 27.06068993 C0.61794239 24.89008288 -1.54487671 22.72915134 -3.71020508 20.5703125 C-4.34153854 19.92976425 -4.97287201 19.289216 -5.62333679 18.6292572 C-11.40926234 12.89743864 -16.7499019 10.2242199 -24.93457031 9.72583008 C-40.4459166 10.33951226 -52.64535364 27.52407778 -62.85253906 37.72583008 Z M159.20214844 17.83911133 C153.89647887 25.85790738 153.05223306 32.3745046 153.04101562 41.81079102 C153.03605072 42.81143585 153.03108582 43.81208069 153.02597046 44.8430481 C153.01138183 48.14903454 153.00455215 51.454973 152.99902344 54.76098633 C152.99326908 57.0639852 152.98751138 59.36698406 152.98175049 61.66998291 C152.97124975 66.49849673 152.96540107 71.32699395 152.96191406 76.15551758 C152.95643268 82.33018881 152.93240812 88.50463916 152.90394211 94.67924118 C152.88528032 99.43716057 152.88010823 104.19502715 152.87857819 108.95298004 C152.87555892 111.22866269 152.86755502 113.50434456 152.85439301 115.77999115 C152.83725947 118.97011421 152.83923081 122.15970259 152.84570312 125.34985352 C152.83648834 126.28211761 152.82727356 127.21438171 152.81777954 128.17489624 C152.87533693 137.2719817 154.94463717 144.42407816 161.23339844 151.11254883 C166.47974149 155.71350841 172.63359806 157.95209553 179.57084656 157.97955322 C180.4384108 157.98526337 181.30597504 157.99097351 182.1998291 157.99685669 C183.1437854 157.99797455 184.0877417 157.99909241 185.06030273 158.00024414 C186.06080154 158.00520905 187.06130035 158.01017395 188.09211731 158.01528931 C191.40354093 158.02989885 194.71491662 158.03671161 198.02636719 158.04223633 C200.3307953 158.0479896 202.6352234 158.05374731 204.93965149 158.05950928 C209.77414167 158.0700164 214.60861524 158.07586069 219.44311523 158.0793457 C225.62566223 158.08482408 231.8079883 158.10883949 237.99046612 158.13731766 C242.75267672 158.155981 247.51483455 158.16115165 252.27707863 158.16268158 C254.55555235 158.16570122 256.83402529 158.17370641 259.112463 158.18686676 C262.3074845 158.20400117 265.50197215 158.20202858 268.69702148 158.19555664 C269.63085663 158.20477142 270.56469177 158.21398621 271.52682495 158.22348022 C280.48403191 158.16690074 288.49615725 156.02119695 295.20214844 149.83911133 C300.8428472 142.67389938 301.49913374 136.16446023 301.47680664 127.37084961 C301.48191757 126.32943817 301.4870285 125.28802673 301.49229431 124.21505737 C301.50616991 120.77978738 301.50523497 117.34471848 301.50292969 113.90942383 C301.50681785 111.51577683 301.51115277 109.12213052 301.51591492 106.72848511 C301.52337286 101.71341718 301.52308899 96.69841966 301.51782227 91.68334961 C301.51202965 85.26533545 301.52895597 78.84761006 301.55216694 72.42964363 C301.5669187 67.48646365 301.56777397 62.54335297 301.56465721 57.60015488 C301.56516974 55.2343374 301.5703946 52.86851597 301.58046913 50.50271988 C301.59284321 47.19034464 301.58603544 43.87852879 301.57446289 40.56616211 C301.58210663 39.59447083 301.58975037 38.62277954 301.59762573 37.62164307 C301.53294617 29.22072944 299.66053889 22.67437257 293.88183594 16.37817383 C288.87239295 11.78812607 283.41279138 9.72876964 276.68159485 9.69194031 C275.78037399 9.684785 274.87915314 9.6776297 273.95062256 9.67025757 C272.47858368 9.66622421 272.47858368 9.66622421 270.97680664 9.66210938 C269.93729355 9.65553818 268.89778046 9.64896698 267.82676697 9.64219666 C264.38548712 9.6224813 260.9442509 9.61080457 257.50292969 9.60083008 C255.73800706 9.59471679 255.73800706 9.59471679 253.93742943 9.58848 C247.7090205 9.56762622 241.48063355 9.55332179 235.25219727 9.54394531 C228.8274539 9.53288584 222.40305733 9.49848878 215.97843647 9.45877361 C211.0309333 9.43259607 206.0835126 9.4242524 201.13594627 9.42066383 C198.76814623 9.41580043 196.40034981 9.40419355 194.03261757 9.38562584 C190.71295516 9.36121241 187.39418807 9.36220397 184.07446289 9.36914062 C183.10322479 9.35633057 182.13198669 9.34352051 181.13131714 9.33032227 C172.83084244 9.39329148 165.12254974 11.75425444 159.20214844 17.83911133 Z M-171.79785156 183.83911133 C-175.32401633 188.79074695 -176.91535529 193.33354008 -176.93829346 199.36639404 C-176.9440036 200.26906006 -176.94971375 201.17172607 -176.95559692 202.10174561 C-176.95671478 203.0846759 -176.95783264 204.0676062 -176.95898438 205.08032227 C-176.96394928 206.12144165 -176.96891418 207.16256104 -176.97402954 208.23522949 C-176.98864049 211.68132182 -176.99545167 215.1273681 -177.00097656 218.57348633 C-177.0067292 220.96999106 -177.01248692 223.36649578 -177.01824951 225.76300049 C-177.02875668 230.79000055 -177.03460111 235.81698464 -177.03808594 240.84399414 C-177.04356786 247.27774044 -177.06759088 253.71127481 -177.09605789 260.14495468 C-177.11470487 265.09670626 -177.11989099 270.04840702 -177.12142181 275.00019073 C-177.12444456 277.37159635 -177.13246027 279.74300115 -177.14560699 282.11437225 C-177.16270896 285.43651836 -177.16077677 288.75814969 -177.15429688 292.08032227 C-177.16351166 293.05515564 -177.17272644 294.02998901 -177.18222046 295.03436279 C-177.13130363 303.39024721 -175.29213501 310.02147754 -169.54394531 316.30004883 C-164.39920974 320.8347822 -158.14678247 322.94836968 -151.35995483 322.98628235 C-150.03553375 322.9970153 -150.03553375 322.9970153 -148.68435669 323.00796509 C-147.24272659 323.01199844 -147.24272659 323.01199844 -145.77197266 323.01611328 C-144.24437317 323.02597008 -144.24437317 323.02597008 -142.68591309 323.036026 C-139.31437097 323.05574132 -135.9428734 323.06741879 -132.57128906 323.07739258 C-130.84133635 323.08350587 -130.84133635 323.08350587 -129.07643509 323.08974266 C-122.97006663 323.11059758 -116.86372058 323.12490086 -110.75732422 323.13427734 C-104.46271226 323.14533013 -98.16845492 323.1797191 -91.87396812 323.21944904 C-87.02335979 323.24564703 -82.17283548 323.25397212 -77.32216263 323.25755882 C-75.00263707 323.26241785 -72.6831151 323.27401219 -70.36365891 323.29259682 C-67.10885626 323.31705132 -63.85496483 323.31601114 -60.60009766 323.30908203 C-59.65115631 323.32189209 -58.70221497 323.33470215 -57.72451782 323.34790039 C-49.95007836 323.28790894 -43.13004773 321.50486826 -36.98535156 316.58911133 C-30.58281694 308.54021066 -28.63642808 302.81815902 -28.68432617 292.46875 C-28.68410713 291.22407455 -28.68410713 291.22407455 -28.68388367 289.95425415 C-28.68457824 287.22183585 -28.69234927 284.48948641 -28.70019531 281.75708008 C-28.70206111 279.85850563 -28.70348425 277.9599307 -28.70448303 276.06135559 C-28.70829546 271.07189599 -28.71811487 266.08246564 -28.72918701 261.09301758 C-28.73942853 255.99862056 -28.74398653 250.9042188 -28.74902344 245.80981445 C-28.75973828 235.81956725 -28.7767994 225.82934172 -28.79785156 215.83911133 C-29.67723892 215.57655548 -30.55662628 215.31399963 -31.46266174 215.04348755 C-33.20361366 214.51717239 -33.20361366 214.51717239 -34.97973633 213.98022461 C-36.12724869 213.63516876 -37.27476105 213.29011292 -38.45704651 212.93460083 C-47.31601547 210.0296401 -51.8821291 206.05326085 -56.98925781 198.47192383 C-64.53416014 187.7619468 -73.23953399 176.55580884 -86.81890869 173.94970703 C-98.00936802 172.2459821 -109.38867479 172.42184675 -120.67285156 172.71411133 C-121.9159654 172.74416134 -121.9159654 172.74416134 -123.18419266 172.77481842 C-149.67474587 172.05536855 -149.67474587 172.05536855 -171.79785156 183.83911133 Z M6.83091736 200.50836182 C2.15577225 207.91952372 -3.86089105 210.67168487 -11.79785156 213.83911133 C-11.86747015 225.17468097 -11.92072308 236.51019945 -11.95328808 247.84593964 C-11.96892042 253.11001659 -11.99011433 258.37394689 -12.02416992 263.63793945 C-12.05685 268.72133316 -12.07472286 273.8045861 -12.08248329 278.88807678 C-12.08801128 280.8240836 -12.09880605 282.76008303 -12.11504173 284.69602966 C-12.13693098 287.41511472 -12.1398137 290.13362371 -12.13842773 292.8527832 C-12.14921356 293.64688599 -12.15999939 294.44098877 -12.17111206 295.25915527 C-12.12696713 303.3029112 -9.55354527 311.02685061 -3.79785156 316.83911133 C1.74438176 320.67604209 6.88114896 322.95330857 13.65350342 322.97955322 C14.98225998 322.98811844 14.98225998 322.98811844 16.33786011 322.99685669 C17.78420334 322.99853348 17.78420334 322.99853348 19.25976562 323.00024414 C20.28137787 323.00520905 21.30299011 323.01017395 22.3555603 323.01528931 C25.73672153 323.02989893 29.11783583 323.03671123 32.49902344 323.04223633 C34.85068767 323.0479891 37.2023519 323.05374682 39.55401611 323.05950928 C44.48685932 323.07001608 49.41968624 323.07586074 54.35253906 323.0793457 C60.66521883 323.0848274 66.97768258 323.10885007 73.29029465 323.13731766 C78.14940006 323.15596638 83.00845369 323.16115085 87.86759186 323.16268158 C90.19434031 323.16570396 92.52108794 323.17371843 94.84780121 323.18686676 C98.10768433 323.20397232 101.367043 323.20203567 104.62695312 323.19555664 C105.58308502 323.20477142 106.53921692 323.21398621 107.52432251 323.22348022 C116.04275661 323.17059921 123.98640628 320.99435965 130.20214844 314.83911133 C134.0390792 309.29687801 136.31634567 304.1601108 136.34259033 297.38775635 C136.34830048 296.50191864 136.35401062 295.61608093 136.3598938 294.70339966 C136.36101166 293.73917084 136.36212952 292.77494202 136.36328125 291.78149414 C136.36824615 290.7598819 136.37321106 289.73826965 136.37832642 288.68569946 C136.39293604 285.30453824 136.39974834 281.92342394 136.40527344 278.54223633 C136.41102621 276.19057209 136.41678393 273.83890787 136.42254639 271.48724365 C136.43305319 266.55440045 136.43889785 261.62157352 136.44238281 256.6887207 C136.44786451 250.37604094 136.47188718 244.06357719 136.50035477 237.75096512 C136.51900349 232.89185971 136.52418796 228.03280608 136.52571869 223.17366791 C136.52874106 220.84691945 136.53675554 218.52017182 136.54990387 216.19345856 C136.56700943 212.93357544 136.56507278 209.67421677 136.55859375 206.41430664 C136.57241592 204.9801088 136.57241592 204.9801088 136.58651733 203.51693726 C136.53363631 194.99850316 134.35739676 187.05485349 128.20214844 180.83911133 C121.56570658 176.24465158 115.77307451 174.7503682 107.80444336 174.23364258 C107.06311378 174.18442091 106.32178419 174.13519924 105.55799007 174.08448601 C95.8427132 173.46885683 86.1207224 173.09006753 76.38964844 172.83911133 C75.45821392 172.81484825 74.5267794 172.79058517 73.5671196 172.76558685 C44.14910738 172.09490542 23.66141186 173.76058806 6.83091736 200.50836182 Z M159.20214844 183.83911133 C153.71690401 191.52783001 153.05206933 197.51223417 153.04101562 206.81079102 C153.03605072 207.81143585 153.03108582 208.81208069 153.02597046 209.8430481 C153.01138183 213.14903454 153.00455215 216.454973 152.99902344 219.76098633 C152.99326908 222.0639852 152.98751138 224.36698406 152.98175049 226.66998291 C152.97124975 231.49849673 152.96540107 236.32699395 152.96191406 241.15551758 C152.95643268 247.33018881 152.93240812 253.50463916 152.90394211 259.67924118 C152.88528032 264.43716057 152.88010823 269.19502715 152.87857819 273.95298004 C152.87555892 276.22866269 152.86755502 278.50434456 152.85439301 280.77999115 C152.83725947 283.97011421 152.83923081 287.15970259 152.84570312 290.34985352 C152.83648834 291.28211761 152.82727356 292.21438171 152.81777954 293.17489624 C152.87035454 301.48450343 154.64489851 309.42689987 160.20214844 315.83911133 C166.13671229 320.05968596 171.2922259 322.9510041 178.64677429 322.97955322 C179.53116684 322.98526337 180.41555939 322.99097351 181.32675171 322.99685669 C182.28940948 322.99797455 183.25206726 322.99909241 184.24389648 323.00024414 C185.26390244 323.00520905 186.28390839 323.01017395 187.33482361 323.01528931 C190.71117833 323.02990021 194.08748604 323.03671182 197.46386719 323.04223633 C199.81313579 323.04798945 202.16240439 323.05374717 204.51167297 323.05950928 C209.44032001 323.07001676 214.36895076 323.07586083 219.29760742 323.0793457 C225.60122087 323.08482437 231.90461766 323.10884027 238.20816326 323.13731766 C243.06302003 323.15597893 247.91782502 323.16115154 252.77271461 323.16268158 C255.09584549 323.16570165 257.41897558 323.17370829 259.74207115 323.18686676 C262.99935553 323.20399693 266.25611609 323.20202959 269.51342773 323.19555664 C270.46596436 323.20477142 271.41850098 323.21398621 272.39990234 323.22348022 C281.01358421 323.17008973 288.27476331 321.51007147 294.69824219 315.51879883 C299.2316078 310.45555931 301.31694043 305.05788191 301.34259033 298.31182861 C301.34830048 297.4091626 301.35401062 296.50649658 301.3598938 295.57647705 C301.36101166 294.59354675 301.36212952 293.61061646 301.36328125 292.59790039 C301.36824615 291.55678101 301.37321106 290.51566162 301.37832642 289.44299316 C301.39293737 285.99690083 301.39974855 282.55085455 301.40527344 279.10473633 C301.41102608 276.7082316 301.4167838 274.31172688 301.42254639 271.91522217 C301.43305355 266.8882221 301.43889799 261.86123802 301.44238281 256.83422852 C301.44786473 250.40048222 301.47188775 243.96694785 301.50035477 237.53326797 C301.51900175 232.5815164 301.52418787 227.62981564 301.52571869 222.67803192 C301.52874143 220.30662631 301.53675715 217.9352215 301.54990387 215.5638504 C301.56700583 212.24170429 301.56507364 208.92007296 301.55859375 205.59790039 C301.57241592 204.13565033 301.57241592 204.13565033 301.58651733 202.64385986 C301.5356005 194.28797544 299.69643188 187.65674511 293.94824219 181.37817383 C288.80350662 176.84344046 282.55107935 174.72985297 275.76425171 174.69194031 C274.88130432 174.684785 273.99835693 174.6776297 273.08865356 174.67025757 C272.12756683 174.66756866 271.1664801 174.66487976 270.17626953 174.66210938 C269.15786987 174.65553818 268.13947021 174.64896698 267.09020996 174.64219666 C263.71866785 174.62248133 260.34717028 174.61080387 256.97558594 174.60083008 C255.24563322 174.59471679 255.24563322 174.59471679 253.48073196 174.58848 C247.3743635 174.56762508 241.26801746 174.55332179 235.16162109 174.54394531 C228.86700913 174.53289253 222.57275179 174.49850355 216.278265 174.45877361 C211.42765667 174.43257563 206.57713235 174.42425054 201.7264595 174.42066383 C199.40693395 174.41580481 197.08741197 174.40421047 194.76795578 174.38562584 C191.51315313 174.36117133 188.25926171 174.36221151 185.00439453 174.36914062 C183.58098251 174.34992554 183.58098251 174.34992554 182.1288147 174.33032227 C173.22030836 174.39906474 164.93066298 176.63755018 159.20214844 183.83911133 Z M-20.79785156 323.83911133 C-23.44537161 326.41695979 -25.74217221 328.7555923 -27.79785156 331.83911133 C-25.48785156 334.14911133 -23.17785156 336.45911133 -20.79785156 338.83911133 C-17.15553949 335.98767836 -17.15553949 335.98767836 -13.79785156 332.83911133 C-13.4623949 329.61988746 -13.4623949 329.61988746 -16.17285156 327.21411133 C-18.54650096 324.85292903 -18.54650096 324.85292903 -20.79785156 323.83911133 Z M144.20214844 323.83911133 C143.60402344 324.60223633 143.00589844 325.36536133 142.38964844 326.15161133 C140.73255512 328.18746883 139.0991717 330.03693923 137.20214844 331.83911133 C139.7799969 334.48663137 142.11862941 336.78343198 145.20214844 338.83911133 C147.51214844 336.52911133 149.82214844 334.21911133 152.20214844 331.83911133 C151.25339844 330.70473633 150.30464844 329.57036133 149.32714844 328.40161133 C148.79347656 327.76352539 148.25980469 327.12543945 147.70996094 326.46801758 C146.27987273 324.73106129 146.27987273 324.73106129 144.20214844 323.83911133 Z M-170.79785156 347.83911133 C-176.43855033 355.00432328 -177.09483687 361.51376243 -177.07250977 370.30737305 C-177.0776207 371.34878448 -177.08273163 372.39019592 -177.08799744 373.46316528 C-177.10187304 376.89843528 -177.10093809 380.33350417 -177.09863281 383.76879883 C-177.10252098 386.16244582 -177.1068559 388.55609213 -177.11161804 390.94973755 C-177.11907599 395.96480547 -177.11879211 400.97980299 -177.11352539 405.99487305 C-177.10773278 412.41288721 -177.1246591 418.8306126 -177.14787006 425.24857903 C-177.16262183 430.19175901 -177.16347709 435.13486968 -177.16036034 440.07806778 C-177.16087286 442.44388526 -177.16609773 444.80970669 -177.17617226 447.17550278 C-177.18854633 450.48787802 -177.18173856 453.79969386 -177.17016602 457.11206055 C-177.17780975 458.08375183 -177.18545349 459.05544312 -177.19332886 460.05657959 C-177.1286493 468.45749322 -175.25624202 475.00385008 -169.47753906 481.30004883 C-164.46809608 485.89009658 -159.00849451 487.94945302 -152.27729797 487.98628235 C-151.37607712 487.99343765 -150.47485626 488.00059296 -149.54632568 488.00796509 C-148.56496643 488.01065399 -147.58360718 488.0133429 -146.57250977 488.01611328 C-145.01324013 488.02597008 -145.01324013 488.02597008 -143.42247009 488.036026 C-139.98119025 488.05574135 -136.53995403 488.06741809 -133.09863281 488.07739258 C-131.33371018 488.08350587 -131.33371018 488.08350587 -129.53313255 488.08974266 C-123.30472362 488.11059644 -117.07633667 488.12490087 -110.84790039 488.13427734 C-104.42315702 488.14533682 -97.99876046 488.17973387 -91.5741396 488.21944904 C-86.62663643 488.24562659 -81.67921573 488.25397025 -76.7316494 488.25755882 C-74.36384935 488.26242223 -71.99605293 488.27402911 -69.62832069 488.29259682 C-66.30865829 488.31701025 -62.98989119 488.31601869 -59.67016602 488.30908203 C-58.69892792 488.32189209 -57.72768982 488.33470215 -56.72702026 488.34790039 C-49.05631879 488.28970877 -43.53230919 486.13071032 -37.04785156 482.15161133 C-29.53905326 474.43423529 -28.65029931 466.1638799 -28.62084961 455.89916992 C-28.61099281 454.40302155 -28.61099281 454.40302155 -28.60093689 452.87664795 C-28.5812499 449.58028074 -28.5695506 446.28395904 -28.55957031 442.98754883 C-28.55549479 441.85847736 -28.55141926 440.7294059 -28.54722023 439.56612015 C-28.52637766 433.58827143 -28.51206888 427.61044553 -28.50268555 421.63256836 C-28.49163367 415.47596345 -28.4572422 409.31972119 -28.41751385 403.16324425 C-28.3912967 398.41382196 -28.38298909 393.66448538 -28.37940407 388.9149971 C-28.37455021 386.64653707 -28.36297076 384.37808055 -28.34436607 382.10969162 C-28.31986981 378.92464683 -28.3209592 375.74053118 -28.32788086 372.55541992 C-28.3150708 371.63034637 -28.30226074 370.70527283 -28.2890625 369.75216675 C-28.35566654 361.28287616 -30.27436639 353.15951351 -36.17285156 346.83911133 C-43.69687611 340.11893556 -51.1570104 339.68940545 -60.76953125 339.67797852 C-62.2704985 339.67053116 -62.2704985 339.67053116 -63.80178833 339.66293335 C-67.10777478 339.64834472 -70.41371323 339.64151504 -73.71972656 339.63598633 C-76.02272543 339.63023197 -78.32572429 339.62447427 -80.62872314 339.61871338 C-85.45723697 339.60821264 -90.28573418 339.60236396 -95.11425781 339.59887695 C-101.28892904 339.59339557 -107.46337939 339.56937101 -113.63798141 339.540905 C-118.39590081 339.52224321 -123.15376738 339.51707112 -127.91172028 339.51554108 C-130.18740292 339.51252181 -132.4630848 339.50451791 -134.73873138 339.4913559 C-137.92885445 339.47422236 -141.11844282 339.4761937 -144.30859375 339.48266602 C-145.24085785 339.47345123 -146.17312195 339.46423645 -147.13363647 339.45474243 C-156.08603161 339.51138436 -164.09588677 341.66073753 -170.79785156 347.83911133 Z M-4.79785156 346.83911133 C-9.01842619 352.77367518 -11.90974434 357.92918879 -11.93829346 365.28373718 C-11.9440036 366.16812973 -11.94971375 367.05252228 -11.95559692 367.9637146 C-11.95671478 368.92637238 -11.95783264 369.88903015 -11.95898438 370.88085938 C-11.96394928 371.90086533 -11.96891418 372.92087128 -11.97402954 373.9717865 C-11.98864044 377.34814122 -11.99545205 380.72444893 -12.00097656 384.10083008 C-12.00672969 386.45009868 -12.0124874 388.79936728 -12.01824951 391.14863586 C-12.028757 396.0772829 -12.03460106 401.00591365 -12.03808594 405.93457031 C-12.04356461 412.23818376 -12.06758051 418.54158055 -12.09605789 424.84512615 C-12.11471917 429.69998292 -12.11989178 434.55478791 -12.12142181 439.40967751 C-12.12444188 441.73280838 -12.13244852 444.05593847 -12.14560699 446.37903404 C-12.16273717 449.63631843 -12.16076982 452.89307898 -12.15429688 456.15039062 C-12.16351166 457.10292725 -12.17272644 458.05546387 -12.18222046 459.03686523 C-12.12882997 467.6505471 -10.4688117 474.9117262 -4.47753906 481.33520508 C0.58570045 485.86857069 5.98337786 487.95390333 12.72943115 487.97955322 C13.63209717 487.98526337 14.53476318 487.99097351 15.46478271 487.99685669 C16.44771301 487.99797455 17.43064331 487.99909241 18.44335938 488.00024414 C19.48447876 488.00520905 20.52559814 488.01017395 21.5982666 488.01528931 C25.04435893 488.02990026 28.49040521 488.03671144 31.93652344 488.04223633 C34.33302817 488.04798897 36.72953289 488.05374669 39.1260376 488.05950928 C44.15303766 488.07001644 49.18002175 488.07586088 54.20703125 488.0793457 C60.64077755 488.08482763 67.07431191 488.10885064 73.50799179 488.13731766 C78.45974337 488.15596464 83.41144413 488.16115076 88.36322784 488.16268158 C90.73463346 488.16570432 93.10603826 488.17372004 95.47740936 488.18686676 C98.79955547 488.20396872 102.1211868 488.20203653 105.44335938 488.19555664 C106.90560944 488.20937881 106.90560944 488.20937881 108.3973999 488.22348022 C116.75328432 488.1725634 123.38451465 486.33339477 129.66308594 480.58520508 C134.19781931 475.44046951 136.31140679 469.18804224 136.34931946 462.4012146 C136.35647476 461.51826721 136.36363007 460.63531982 136.3710022 459.72561646 C136.3736911 458.76452972 136.37638 457.80344299 136.37915039 456.81323242 C136.38900719 455.28563293 136.38900719 455.28563293 136.39906311 453.72717285 C136.41877843 450.35563074 136.4304559 446.98413317 136.44042969 443.61254883 C136.44450521 442.45924702 136.44858074 441.30594521 136.45277977 440.11769485 C136.47363469 434.01132639 136.48793797 427.90498035 136.49731445 421.79858398 C136.50836724 415.50397202 136.54275621 409.20971469 136.58248615 402.91522789 C136.60868414 398.06461956 136.61700923 393.21409525 136.62059593 388.36342239 C136.62545496 386.04389684 136.6370493 383.72437486 136.65563393 381.40491867 C136.68008843 378.15011602 136.67904825 374.8962246 136.67211914 371.64135742 C136.6849292 370.69241608 136.69773926 369.74347473 136.7109375 368.76577759 C136.65094605 360.99133812 134.86790537 354.1713075 129.95214844 348.02661133 C121.34609232 341.18088487 115.10295964 339.69090324 104.23046875 339.67797852 C102.7295015 339.67053116 102.7295015 339.67053116 101.19821167 339.66293335 C97.89222522 339.64834472 94.58628677 339.64151504 91.28027344 339.63598633 C88.97727457 339.63023197 86.67427571 339.62447427 84.37127686 339.61871338 C79.54276303 339.60821264 74.71426582 339.60236396 69.88574219 339.59887695 C63.71107096 339.59339557 57.53662061 339.56937101 51.36201859 339.540905 C46.60409919 339.52224321 41.84623262 339.51707112 37.08827972 339.51554108 C34.81259708 339.51252181 32.5369152 339.50451791 30.26126862 339.4913559 C27.07114555 339.47422236 23.88155718 339.4761937 20.69140625 339.48266602 C19.75914215 339.47345123 18.82687805 339.46423645 17.86636353 339.45474243 C9.55675633 339.50731743 1.61435989 341.2818614 -4.79785156 346.83911133 Z M158.20214844 349.83911133 C153.08856109 356.7853138 153.05085891 363.53046052 153.04101562 371.81079102 C153.03605072 372.81143585 153.03108582 373.81208069 153.02597046 374.8430481 C153.01138183 378.14903454 153.00455215 381.454973 152.99902344 384.76098633 C152.99326908 387.0639852 152.98751138 389.36698406 152.98175049 391.66998291 C152.97124975 396.49849673 152.96540107 401.32699395 152.96191406 406.15551758 C152.95643268 412.33018881 152.93240812 418.50463916 152.90394211 424.67924118 C152.88528032 429.43716057 152.88010823 434.19502715 152.87857819 438.95298004 C152.87555892 441.22866269 152.86755502 443.50434456 152.85439301 445.77999115 C152.83725947 448.97011421 152.83923081 452.15970259 152.84570312 455.34985352 C152.83648834 456.28211761 152.82727356 457.21438171 152.81777954 458.17489624 C152.87442147 467.12729138 155.02377464 475.13714654 161.20214844 481.83911133 C168.36736038 487.4798101 174.87679954 488.13609663 183.67041016 488.11376953 C185.23252731 488.12143593 185.23252731 488.12143593 186.82620239 488.1292572 C190.26147239 488.1431328 193.69654128 488.14219786 197.13183594 488.13989258 C199.52548293 488.14378074 201.91912924 488.14811566 204.31277466 488.15287781 C209.32784258 488.16033575 214.3428401 488.16005188 219.35791016 488.15478516 C225.77592432 488.14899254 232.1936497 488.16591886 238.61161613 488.18912983 C243.55479612 488.20388159 248.49790679 488.20473686 253.44110489 488.2016201 C255.80692237 488.20213263 258.1727438 488.20735749 260.53853989 488.21743202 C263.85091513 488.2298061 267.16273097 488.22299833 270.47509766 488.21142578 C271.44678894 488.21906952 272.41848022 488.22671326 273.4196167 488.23458862 C281.82053033 488.16990906 288.36688719 486.29750178 294.66308594 480.51879883 C299.25313369 475.50935584 301.31249013 470.04975427 301.34931946 463.31855774 C301.35647476 462.41733688 301.36363007 461.51611603 301.3710022 460.58758545 C301.3736911 459.6062262 301.37638 458.62486694 301.37915039 457.61376953 C301.38900719 456.05449989 301.38900719 456.05449989 301.39906311 454.46372986 C301.41877846 451.02245001 301.4304552 447.58121379 301.44042969 444.13989258 C301.44450521 442.96327749 301.44858074 441.78666241 301.45277977 440.57439232 C301.47363355 434.34598339 301.48793798 428.11759644 301.49731445 421.88916016 C301.50837393 415.46441679 301.54277098 409.04002022 301.58248615 402.61539936 C301.60866369 397.66789619 301.61700736 392.7204755 301.62059593 387.77290916 C301.62545934 385.40510912 301.63706622 383.0373127 301.65563393 380.66958046 C301.68004736 377.34991805 301.6790558 374.03115096 301.67211914 370.71142578 C301.6849292 369.74018768 301.69773926 368.76894958 301.7109375 367.76828003 C301.65274588 360.09757856 299.49374743 354.57356895 295.51464844 348.08911133 C287.78441873 340.56780675 279.51096061 339.6901995 269.23046875 339.67797852 C267.7295015 339.67053116 267.7295015 339.67053116 266.19821167 339.66293335 C262.89222522 339.64834472 259.58628677 339.64151504 256.28027344 339.63598633 C253.97727457 339.63023197 251.67427571 339.62447427 249.37127686 339.61871338 C244.54276303 339.60821264 239.71426582 339.60236396 234.88574219 339.59887695 C228.71107096 339.59339557 222.53662061 339.56937101 216.36201859 339.540905 C211.60409919 339.52224321 206.84623262 339.51707112 202.08827972 339.51554108 C199.81259708 339.51252181 197.5369152 339.50451791 195.26126862 339.4913559 C192.07114555 339.47422236 188.88155718 339.4761937 185.69140625 339.48266602 C184.75914215 339.47345123 183.82687805 339.46423645 182.86636353 339.45474243 C172.6738512 339.5192306 165.12298642 342.22932115 158.20214844 349.83911133 Z " fill="#000000" transform="translate(193.7978515625,7.160888671875)"/>
<path d="M0 0 C1.53684448 -0.00945648 1.53684448 -0.00945648 3.10473633 -0.019104 C4.20068115 -0.01505554 5.29662598 -0.01100708 6.42578125 -0.00683594 C8.1286731 -0.00970612 8.1286731 -0.00970612 9.8659668 -0.01263428 C12.26318585 -0.01399362 14.66041233 -0.01031472 17.05761719 -0.00195312 C20.72477774 0.00874965 24.39144841 -0.00185721 28.05859375 -0.01464844 C30.389324 -0.0133268 32.72005394 -0.01076432 35.05078125 -0.00683594 C36.14672607 -0.0108844 37.2426709 -0.01493286 38.37182617 -0.019104 C39.39638916 -0.01279968 40.42095215 -0.00649536 41.4765625 0 C42.37415283 0.00159119 43.27174316 0.00318237 44.1965332 0.00482178 C47.07227014 0.29216068 49.16524877 0.9462142 51.73828125 2.25878906 C53.90754784 5.51268894 53.97908174 6.39274864 53.93359375 10.14550781 C53.92714844 11.08330078 53.92070313 12.02109375 53.9140625 12.98730469 C53.88892578 14.45200195 53.88892578 14.45200195 53.86328125 15.94628906 C53.85425781 16.93435547 53.84523438 17.92242187 53.8359375 18.94042969 C53.81236691 21.37998613 53.77649594 23.81941807 53.73828125 26.25878906 C48.12828125 26.25878906 42.51828125 26.25878906 36.73828125 26.25878906 C36.73828125 23.61878906 36.73828125 20.97878906 36.73828125 18.25878906 C26.17828125 18.25878906 15.61828125 18.25878906 4.73828125 18.25878906 C4.73828125 23.20878906 4.73828125 28.15878906 4.73828125 33.25878906 C5.98440186 33.24307861 7.23052246 33.22736816 8.5144043 33.21118164 C13.14552323 33.15680833 17.77661403 33.12241195 22.40795898 33.09399414 C24.41093697 33.07892441 26.41388205 33.05846496 28.41674805 33.0324707 C31.29874806 32.99600779 34.18031109 32.97904446 37.0625 32.96582031 C37.9553923 32.95033646 38.84828461 32.9348526 39.76823425 32.91889954 C44.60885519 32.91759453 47.79850102 33.12553303 51.73828125 36.25878906 C54.83471486 39.35522267 54.08376288 43.08807164 54.109375 47.24707031 C54.11840347 48.14241989 54.12743195 49.03776947 54.13673401 49.96025085 C54.15125843 51.85749966 54.16012867 53.7547988 54.16381836 55.65209961 C54.17569342 58.54985593 54.22483759 61.44546828 54.27539062 64.34277344 C54.28485716 66.185862 54.29209109 68.02896365 54.296875 69.87207031 C54.31640732 70.73681473 54.33593964 71.60155914 54.35606384 72.49250793 C54.32617874 76.49515603 54.01097925 78.78386002 51.98852539 82.30615234 C46.89915296 85.36367512 42.00450546 84.95299516 36.17578125 84.88769531 C34.95173584 84.89010727 33.72769043 84.89251923 32.46655273 84.89500427 C29.88098915 84.89402564 27.29540466 84.88062857 24.70996094 84.85571289 C20.75253105 84.82141257 16.79733463 84.83505413 12.83984375 84.85449219 C10.32681341 84.84759365 7.81378884 84.83792121 5.30078125 84.82519531 C3.52562134 84.83263512 3.52562134 84.83263512 1.71459961 84.84022522 C-6.45189494 84.7231494 -6.45189494 84.7231494 -10.484375 82.41088867 C-13.60208746 78.6358014 -13.39641338 75.30261329 -13.42285156 70.57177734 C-13.42781647 69.89662079 -13.43278137 69.22146423 -13.43789673 68.52584839 C-13.45249473 66.29358906 -13.45931621 64.06140078 -13.46484375 61.82910156 C-13.47059695 60.2759501 -13.47635466 58.72279865 -13.4821167 57.16964722 C-13.49261982 53.91306223 -13.49846706 50.65650188 -13.50195312 47.39990234 C-13.50743782 43.23132836 -13.53146798 39.06308101 -13.55992508 34.89460945 C-13.57856764 31.68609674 -13.5837579 28.47766248 -13.585289 25.26910019 C-13.58831219 23.73253467 -13.59632948 22.19597043 -13.60947418 20.65945816 C-13.62656987 18.50758393 -13.62464641 16.35650483 -13.61816406 14.20458984 C-13.62180969 12.98119904 -13.62545532 11.75780823 -13.62921143 10.49734497 C-13.21966578 6.88819418 -12.55444036 5.06463914 -10.26171875 2.25878906 C-6.81803474 0.36611738 -3.8902035 0.00689629 0 0 Z M4.73828125 51.25878906 C4.73828125 56.20878906 4.73828125 61.15878906 4.73828125 66.25878906 C15.29828125 66.25878906 25.85828125 66.25878906 36.73828125 66.25878906 C36.73828125 61.30878906 36.73828125 56.35878906 36.73828125 51.25878906 C26.17828125 51.25878906 15.61828125 51.25878906 4.73828125 51.25878906 Z " fill="#000000" transform="translate(70.26171875,378.7412109375)"/>
<path d="M0 0 C0.92039062 -0.01160156 1.84078125 -0.02320313 2.7890625 -0.03515625 C12.27844452 0.00493973 20.32629124 1.74837771 27.30859375 8.40625 C31.57280177 13.36966996 33.65380809 18.98231925 34.3125 25.4375 C33.88412391 30.83503876 31.98225008 35.37559015 30 40.375 C29.67 41.365 29.34 42.355 29 43.375 C29.928125 45.1075 29.928125 45.1075 30.875 46.875 C34.24633438 53.27701129 34.94782046 60.17216796 32.875 67.125 C29.57318161 75.37954596 25.20879703 79.82128107 17 83.375 C11.61320823 85.023203 5.95511056 84.64105069 0.375 84.6875 C-0.76324219 84.71650391 -1.90148437 84.74550781 -3.07421875 84.77539062 C-11.68522976 84.8396519 -18.85740558 83.7804563 -25.65625 78.19140625 C-26.2646875 77.44761719 -26.873125 76.70382812 -27.5 75.9375 C-28.1290625 75.19628906 -28.758125 74.45507812 -29.40625 73.69140625 C-33.94403698 67.09604429 -33.7648796 60.14688009 -33 52.375 C-31.92561094 49.47999349 -30.52413468 47.07910992 -29 44.375 C-29.08012369 41.08992855 -30.03843064 39.30121318 -31.5625 36.375 C-34.26933094 30.19372934 -34.08383687 22.89144851 -32.12109375 16.5234375 C-29.22639289 10.19904155 -25.381886 5.17629433 -18.8269043 2.48168945 C-12.45169528 0.48841381 -6.65953662 -0.08394374 0 0 Z M-13.62109375 20.21875 C-15.46808165 23.1069577 -16.07034873 24.92791243 -16 28.375 C-14.27877997 31.26477861 -14.27877997 31.26477861 -11 33.375 C-7.13325196 34.11803991 -3.36388871 34.07320799 0.5625 34 C1.60341797 34.01933594 2.64433594 34.03867187 3.71679688 34.05859375 C9.73661795 34.10281317 9.73661795 34.10281317 14.71484375 31.0625 C16.48142112 27.36825918 16.15192682 25.262753 15 21.375 C10.60016595 17.13203923 5.77162357 17.89648717 0 17.9375 C-0.99773437 17.91751953 -1.99546875 17.89753906 -3.0234375 17.87695312 C-8.68111957 17.79795205 -8.68111957 17.79795205 -13.62109375 20.21875 Z M-13.6171875 53.2265625 C-15.47286722 56.1096807 -16.07034637 57.92802802 -16 61.375 C-14.28005457 64.26864123 -14.28005457 64.26864123 -11 66.375 C-7.13240607 67.09331592 -3.35995588 67.02769942 0.5625 66.9375 C1.60341797 66.94845703 2.64433594 66.95941406 3.71679688 66.97070312 C9.42998605 67.12002568 9.42998605 67.12002568 14.29272461 64.52319336 C16.22413445 62.43392805 16.22413445 62.43392805 16.5625 59.4375 C15.77599247 55.15540343 14.49919658 53.9734133 11 51.375 C7.29773475 50.66006687 3.69655603 50.72189083 -0.0625 50.8125 C-1.55233398 50.79606445 -1.55233398 50.79606445 -3.07226562 50.77929688 C-8.70699855 50.77453126 -8.70699855 50.77453126 -13.6171875 53.2265625 Z " fill="#000000" transform="translate(421,378.625)"/>
<path d="M0 0 C1.22111481 0.00007553 2.44222961 0.00015106 3.7003479 0.00022888 C5.03769979 0.00533587 6.37505127 0.01055187 7.71240234 0.01586914 C9.07717843 0.01773399 10.44195518 0.01915758 11.80673218 0.02015686 C15.40049077 0.02397676 18.99420902 0.03380256 22.58795166 0.04486084 C26.25442967 0.05508628 29.92091419 0.05965691 33.58740234 0.06469727 C40.78273538 0.07542529 47.97802682 0.09301783 55.17333984 0.11352539 C55.17333984 6.05352539 55.17333984 11.99352539 55.17333984 18.11352539 C38.67333984 18.11352539 22.17333984 18.11352539 5.17333984 18.11352539 C5.17333984 23.06352539 5.17333984 28.01352539 5.17333984 33.11352539 C6.44975342 33.09781494 7.72616699 33.08210449 9.04125977 33.06591797 C13.78419669 33.01155158 18.52710614 32.97715076 23.27026367 32.94873047 C25.32174311 32.93365917 27.37319041 32.91319857 29.42456055 32.88720703 C32.37605732 32.85075115 35.32712747 32.83378233 38.27880859 32.82055664 C39.65095772 32.79733086 39.65095772 32.79733086 41.05082703 32.77363586 C45.87008161 32.77236685 49.35507201 32.81835886 53.17333984 36.11352539 C55.95708947 39.70313876 55.47924508 44.07627459 55.47412109 48.42211914 C55.47840622 49.22585464 55.48269135 50.02959015 55.48710632 50.85768127 C55.49283977 52.55468811 55.49335714 54.25171951 55.48901367 55.94873047 C55.485855 58.53859583 55.50931953 61.1273169 55.53466797 63.71704102 C55.53694127 65.36873229 55.53764431 67.02042662 55.53662109 68.67211914 C55.54583084 69.44309433 55.55504059 70.21406952 55.56452942 71.00840759 C55.52567738 75.5460557 55.0913696 78.57023301 52.17333984 82.11352539 C48.84066651 84.25850143 46.12734959 84.35702963 42.21142578 84.34057617 C40.41001129 84.34034958 40.41001129 84.34034958 38.57220459 84.34011841 C37.28042297 84.32979584 35.98864136 84.31947327 34.65771484 84.30883789 C33.31821911 84.30510573 31.97872064 84.30225971 30.63922119 84.30026245 C27.12105719 84.29264196 23.60305945 84.27300726 20.08496094 84.25085449 C16.49204762 84.23036182 12.89910732 84.22125343 9.30615234 84.21118164 C2.26180717 84.18975971 -4.78239812 84.1545906 -11.82666016 84.11352539 C-11.82666016 78.17352539 -11.82666016 72.23352539 -11.82666016 66.11352539 C4.34333984 66.11352539 20.51333984 66.11352539 37.17333984 66.11352539 C37.17333984 61.16352539 37.17333984 56.21352539 37.17333984 51.11352539 C35.25871948 51.13709106 35.25871948 51.13709106 33.30541992 51.16113281 C28.562483 51.2154992 23.81957355 51.24990002 19.07641602 51.27832031 C17.02493658 51.29339161 14.97348928 51.31385221 12.92211914 51.33984375 C9.97062236 51.37629963 7.01955222 51.39326846 4.06787109 51.40649414 C2.69572197 51.42971992 2.69572197 51.42971992 1.29585266 51.45341492 C-3.55332207 51.45469181 -6.92124211 51.34114766 -10.82666016 48.11352539 C-12.5275639 44.7117179 -12.03329332 40.83439979 -12.06494141 37.09008789 C-12.07301315 36.19236664 -12.0810849 35.29464539 -12.08940125 34.36972046 C-12.10324307 32.46826104 -12.11396478 30.56677676 -12.12182617 28.6652832 C-12.13905117 25.75692755 -12.18293707 22.84970507 -12.22705078 19.94165039 C-12.23717661 18.09530459 -12.24569306 16.24894912 -12.25244141 14.40258789 C-12.26994949 13.53268219 -12.28745758 12.66277649 -12.30549622 11.76651001 C-12.28376289 5.71880945 -12.28376289 5.71880945 -9.92504883 2.59545898 C-6.38004046 0.09188705 -4.3272492 -0.0089038 0 0 Z " fill="#000000" transform="translate(399.82666015625,213.886474609375)"/>
<path d="M0 0 C7.8670281 -0.0904616 15.7337707 -0.16380796 23.60117626 -0.20724869 C27.25457815 -0.22810093 30.90760497 -0.25637408 34.56079102 -0.30175781 C38.08806849 -0.34530186 41.6149858 -0.36915489 45.14251137 -0.37950897 C47.13949599 -0.39046874 49.13633624 -0.42168148 51.13310242 -0.45318604 C52.96443474 -0.45363922 52.96443474 -0.45363922 54.83276367 -0.45410156 C55.90531906 -0.46298401 56.97787445 -0.47186646 58.08293152 -0.48101807 C61.73906154 0.12186959 63.39126955 1.41275375 66 4 C67.25315817 7.7594745 67.1817264 11.29281278 67.203125 15.2109375 C67.20882507 16.01608795 67.21452515 16.8212384 67.22039795 17.65078735 C67.22983936 19.35376678 67.23637852 21.0567644 67.24023438 22.75976562 C67.24993801 25.35839873 67.28096784 27.95624003 67.3125 30.5546875 C67.31903067 32.21093281 67.32428089 33.86718377 67.328125 35.5234375 C67.3404718 36.29754974 67.3528186 37.07166199 67.36553955 37.86923218 C67.34688312 42.41169688 66.99558761 45.49752959 64 49 C59.53310789 51.78873137 54.41525338 51.25416906 49.32421875 51.1953125 C47.93648003 51.19106766 47.93648003 51.19106766 46.52070618 51.18673706 C43.57617058 51.17557392 40.63194312 51.15047637 37.6875 51.125 C35.68685336 51.11496521 33.68620194 51.10584023 31.68554688 51.09765625 C26.7902465 51.07564722 21.89517543 51.04114391 17 51 C17 55.95 17 60.9 17 66 C33.5 66 50 66 67 66 C67 71.94 67 77.88 67 84 C59.26334197 84.04523344 51.52673337 84.08190618 43.78997517 84.10362434 C40.19725432 84.11404941 36.60462885 84.12818516 33.01196289 84.15087891 C29.54306797 84.17265303 26.07426463 84.18457823 22.60530663 84.18975449 C20.64165092 84.19523334 18.67803192 84.21083903 16.71443176 84.22659302 C15.5135643 84.22674408 14.31269684 84.22689514 13.07543945 84.22705078 C12.02064896 84.231492 10.96585846 84.23593323 9.87910461 84.24050903 C6.82747992 83.98558835 4.70996638 83.41613594 2 82 C-0.0227104 78.9659344 -0.25254661 78.36487224 -0.2746582 74.95922852 C-0.28419022 74.15151505 -0.29372223 73.34380157 -0.30354309 72.51161194 C-0.30263168 71.64281906 -0.30172028 70.77402618 -0.30078125 69.87890625 C-0.30506638 68.98259995 -0.3093515 68.08629364 -0.31376648 67.16282654 C-0.319509 65.2673324 -0.32001062 63.37181623 -0.31567383 61.47631836 C-0.31251572 58.57692838 -0.33596726 55.67856053 -0.36132812 52.77929688 C-0.36360132 50.93750129 -0.36430452 49.09570296 -0.36328125 47.25390625 C-0.372491 46.3871376 -0.38170074 45.52036896 -0.39118958 44.62733459 C-0.34527831 38.65059297 -0.34527831 38.65059297 1.33520508 35.48413086 C4.11144989 33.00916499 6.73339398 32.87605101 10.2878418 32.88647461 C11.14850754 32.88655014 12.00917328 32.88662567 12.8959198 32.88670349 C13.82100845 32.89186478 14.74609711 32.89702606 15.69921875 32.90234375 C16.64940384 32.9037587 17.59958893 32.90517365 18.5785675 32.90663147 C21.61491029 32.91223125 24.65117948 32.92478368 27.6875 32.9375 C29.74544164 32.94251503 31.80338444 32.94707793 33.86132812 32.95117188 C38.90758046 32.9622006 43.95377775 32.97946507 49 33 C49 28.05 49 23.1 49 18 C32.83 18 16.66 18 0 18 C0 12.06 0 6.12 0 0 Z " fill="#000000" transform="translate(388,49)"/>
<path d="M0 0 C5.10509379 -0.0692303 10.20852985 -0.128853 15.3137207 -0.16479492 C17.04685006 -0.17979269 18.77994204 -0.20019772 20.51293945 -0.22631836 C23.01783525 -0.26310203 25.5222252 -0.27981651 28.02734375 -0.29296875 C28.79022202 -0.30845261 29.55310028 -0.32393646 30.33909607 -0.33988953 C38.90839195 -0.34251319 46.04824801 2.03948911 52.26953125 8 C57.69676573 14.27255994 58.62312739 20.70362866 58.4140625 28.84765625 C57.90234664 32.74345528 56.55836842 35.62129393 54.765625 39.07421875 C53.73099227 41.17338521 53.73099227 41.17338521 54.625 44.25 C55.07875 45.1575 55.5325 46.065 56 47 C59.04832601 53.58033474 59.2455926 60.92958133 57.125 67.859375 C54.23710505 74.12914693 50.39050346 79.05163966 43.98048401 81.89619446 C38.52727919 83.78387348 33.77657738 84.40965881 28.02734375 84.29296875 C27.21882462 84.28872391 26.41030548 84.28447906 25.57728577 84.28010559 C23.03033127 84.26350035 20.4842096 84.22588533 17.9375 84.1875 C16.19597508 84.17242958 14.45443759 84.15874534 12.71289062 84.14648438 C8.47469241 84.11622594 4.23826278 84.05747519 0 84 C0 78.06 0 72.12 0 66 C2.56394531 65.95101562 5.12789063 65.90203125 7.76953125 65.8515625 C10.25176854 65.79755781 12.73390903 65.74024835 15.21606445 65.68261719 C16.94157708 65.64432655 18.66716956 65.60947379 20.39282227 65.578125 C22.87284895 65.53247596 25.35232591 65.47448219 27.83203125 65.4140625 C28.60400345 65.40251129 29.37597565 65.39096008 30.17134094 65.37905884 C33.95246674 65.27478727 35.78018835 65.1465411 39 63 C39.89562115 59.83087902 40.28915213 57.82297146 39.1875 54.6875 C38.09312675 52.84902178 38.09312675 52.84902178 36 52 C34.40309017 51.90649053 32.80274576 51.86823226 31.203125 51.859375 C30.2440625 51.84003906 29.285 51.82070313 28.296875 51.80078125 C26.28144747 51.76719079 24.26570572 51.74871837 22.25 51.74609375 C13.9900476 51.53628212 13.9900476 51.53628212 10.3359375 48.70703125 C7.21220029 45.08704817 7.21220029 45.08704817 7.375 41.9375 C8.04684077 37.70490318 8.61536201 36.48870441 12 34 C14.44866938 32.77566531 16.16629329 32.82729259 18.90234375 32.75390625 C19.87494141 32.72103516 20.84753906 32.68816406 21.84960938 32.65429688 C23.90418779 32.59321833 25.95888189 32.53591165 28.01367188 32.48242188 C28.98755859 32.44826172 29.96144531 32.41410156 30.96484375 32.37890625 C31.8580835 32.3538501 32.75132324 32.32879395 33.67163086 32.30297852 C36.27029249 32.13953104 36.27029249 32.13953104 39 30 C39.89562115 26.83087902 40.28915213 24.82297146 39.1875 21.6875 C38.09312675 19.84902178 38.09312675 19.84902178 36 19 C33.30344554 18.84323225 30.62870023 18.74163685 27.9296875 18.68359375 C27.13345978 18.66281265 26.33723206 18.64203156 25.51687622 18.62062073 C22.96967315 18.55515851 20.42236575 18.49625585 17.875 18.4375 C16.14972873 18.3943116 14.42446807 18.35069721 12.69921875 18.30664062 C8.46625128 18.19867755 4.23320629 18.09957993 0 18 C0 12.06 0 6.12 0 0 Z " fill="#000000" transform="translate(66,214)"/>
<path d="M0 0 C5.91492272 0.45224761 11.35199888 1.1582605 17 3 C16.35901503 9.57677289 15.32407366 15.96585011 14 22.4375 C13.82210937 23.33404297 13.64421875 24.23058594 13.4609375 25.15429688 C12.13149889 31.73700221 12.13149889 31.73700221 11 34 C18.26 34 25.52 34 33 34 C33 23.11 33 12.22 33 1 C38.61 1 44.22 1 50 1 C50 11.89 50 22.78 50 34 C55.61 34 61.22 34 67 34 C67 39.94 67 45.88 67 52 C61.39 52 55.78 52 50 52 C50 62.89 50 73.78 50 85 C44.39 85 38.78 85 33 85 C33 74.11 33 63.22 33 52 C30.53144531 52.03480469 28.06289063 52.06960938 25.51953125 52.10546875 C23.12004756 52.12888687 20.72057677 52.14709056 18.32104492 52.16479492 C16.65757519 52.17985114 14.99414495 52.20030063 13.33081055 52.22631836 C10.93528478 52.26284207 8.54028533 52.27975782 6.14453125 52.29296875 C5.4047554 52.30845261 4.66497955 52.32393646 3.90278625 52.33988953 C-0.56612758 52.34133541 -3.63487998 52.05217589 -7 49 C-9.63809045 43.18521851 -8.78994914 38.62107922 -7.48046875 32.63671875 C-7.30244217 31.76352493 -7.12441559 30.89033112 -6.94099426 29.99067688 C-6.37179109 27.21952313 -5.77968159 24.45382369 -5.1875 21.6875 C-4.79998996 19.80954183 -4.41390724 17.93128854 -4.02929688 16.05273438 C-1.20792092 2.41584183 -1.20792092 2.41584183 0 0 Z " fill="#000000" transform="translate(231,213)"/>
<path d="M0 0 C1.13147461 -0.00287018 2.26294922 -0.00574036 3.42871094 -0.00869751 C5.81576031 -0.01073473 8.20282651 -0.00522887 10.58984375 0.00732422 C14.23735998 0.02338185 17.88376812 0.00746299 21.53125 -0.01171875 C23.85416911 -0.00973626 26.17708752 -0.00589246 28.5 0 C29.58764648 -0.00607269 30.67529297 -0.01214539 31.79589844 -0.0184021 C42.09840922 0.07699528 42.09840922 0.07699528 46.25 3.3984375 C48.32352643 8.73269255 48.26709069 12.31114602 47.02416992 17.84667969 C46.79293175 18.90900063 46.79293175 18.90900063 46.55702209 19.99278259 C46.04751199 22.31417608 45.51431071 24.62940487 44.98046875 26.9453125 C44.61985328 28.56448147 44.2606884 30.18397412 43.90290833 31.80377197 C42.95982074 36.05407332 41.99629116 40.29948767 41.02862549 44.54425049 C40.04694533 48.86901532 39.08630697 53.19844687 38.12304688 57.52734375 C36.71347563 63.84310916 35.29859485 70.15763722 33.86401367 76.46777344 C33.57596359 77.73683533 33.28791351 79.00589722 32.99113464 80.31341553 C32.25 83.3984375 32.25 83.3984375 31.25 86.3984375 C28.79093963 85.92277984 26.33279007 85.44307698 23.875 84.9609375 C22.82699219 84.75887695 22.82699219 84.75887695 21.7578125 84.55273438 C16.4765625 83.51171875 16.4765625 83.51171875 14.25 82.3984375 C14.90770144 75.00696381 16.33273616 67.93865431 17.97265625 60.70703125 C18.23759384 59.52117935 18.50253143 58.33532745 18.77549744 57.11354065 C19.61666804 53.35331508 20.46447885 49.59462337 21.3125 45.8359375 C21.88650802 43.2754893 22.46008034 40.71494337 23.03320312 38.15429688 C24.43295226 31.90100369 25.84168394 25.64983142 27.25 19.3984375 C19 19.0684375 10.75 18.7384375 2.25 18.3984375 C2.91 20.3371875 3.57 22.2759375 4.25 24.2734375 C6.25 30.1484375 6.25 30.1484375 6.25 32.3984375 C3.98117913 33.23763148 1.71022973 34.06995474 -0.5625 34.8984375 C-1.20509766 35.13691406 -1.84769531 35.37539063 -2.50976562 35.62109375 C-5.39933739 36.66912496 -7.65076061 37.3984375 -10.75 37.3984375 C-12.09383972 33.69006706 -13.41106128 29.97337259 -14.70507812 26.24731445 C-15.36523298 24.36380411 -16.04575878 22.48747363 -16.7265625 20.61132812 C-17.1390625 19.41572266 -17.5515625 18.22011719 -17.9765625 16.98828125 C-18.55784912 15.34653931 -18.55784912 15.34653931 -19.15087891 13.67163086 C-19.90846928 9.53266827 -19.48614805 7.22589369 -17.75 3.3984375 C-12.60605131 -0.71693158 -6.27848353 -0.03505487 0 0 Z " fill="#000000" transform="translate(241.75,378.6015625)"/>
<path d="M0 0 C2.24655151 1.65281677 2.24655151 1.65281677 4.60498047 3.86889648 C5.48152283 4.68905243 6.35806519 5.50920837 7.26116943 6.35421753 C11.82722159 10.76514418 16.34388501 15.22094054 20.8203125 19.72265625 C21.81470996 20.71892513 22.80933313 21.71496877 23.8041687 22.71080017 C26.38733113 25.29773085 28.96747319 27.88765258 31.54693604 30.47827148 C34.193488 33.13516194 36.84297092 35.7891263 39.4921875 38.44335938 C44.66428467 43.6260931 49.83318542 48.81199932 55 54 C53.32867581 57.54023647 51.36660667 59.99347254 48.625 62.8125 C47.46871094 64.02873047 47.46871094 64.02873047 46.2890625 65.26953125 C44 67 44 67 42.13775635 66.86769104 C39.27685281 65.70648276 37.68056508 64.0398803 35.50683594 61.84741211 C34.62622498 60.96657455 33.74561401 60.085737 32.83831787 59.1782074 C31.88684175 58.21141209 30.93553132 57.24445369 29.984375 56.27734375 C29.00425744 55.29162903 28.02347397 54.30657603 27.04205322 53.32215881 C24.46421516 50.73288151 21.89551421 48.13472118 19.32861328 45.53460693 C16.70630595 42.88157894 14.07545622 40.2370522 11.4453125 37.59179688 C6.28847705 32.40281353 1.14126485 27.20441608 -4 22 C-4.66 22.33 -5.32 22.66 -6 23 C-6.33 29.93 -6.66 36.86 -7 44 C-12.94 44 -18.88 44 -25 44 C-25.08108167 39.95792861 -25.14054629 35.91749092 -25.1875 31.875 C-25.21263672 30.73289062 -25.23777344 29.59078125 -25.26367188 28.4140625 C-25.33250297 20.52143077 -24.63066622 15.71671907 -19.15234375 9.82421875 C-18.08843554 8.77080532 -17.01665019 7.72529353 -15.9375 6.6875 C-15.39544922 6.15060547 -14.85339844 5.61371094 -14.29492188 5.06054688 C-9.86419866 0.71745231 -6.35323594 -1.62557596 0 0 Z " fill="#000000" transform="translate(156,74)"/>
</svg>
